<?xml version="1.0" encoding="utf-8"?>
<!-- Generator: Adobe Illustrator 17.0.0, SVG Export Plug-In . SVG Version: 6.00 Build 0)  -->
<!DOCTYPE svg PUBLIC "-//W3C//DTD SVG 1.1//EN" "http://www.w3.org/Graphics/SVG/1.1/DTD/svg11.dtd">
<svg version="1.1" id="Layer_1" xmlns="http://www.w3.org/2000/svg" xmlns:xlink="http://www.w3.org/1999/xlink" x="0px" y="0px"
	 width="532.42px" height="106.952px" viewBox="43.115 399.548 532.42 106.952"
	 style="enable-background:new 43.115 399.548 532.42 106.952;" xml:space="preserve">
<style type="text/css">
	.st0{fill:#3C4484;}
	.st1{fill:#F48934;}
	.st2{fill:#6C73A5;}
	.st3{fill-rule:evenodd;clip-rule:evenodd;fill:#F4852E;}
	.st4{fill-rule:evenodd;clip-rule:evenodd;fill:#3F609B;}
</style>
<g id="svgg">
	<path id="path0" class="st0" d="M164.877,427.676c-0.253,0-0.253,0.243-0.506,0.243v30.094v30.094
		c0.253,0.243,0.506,0.485,1.013,0.971c0.506,0,1.013,0,1.519,0c2.025,0,4.051,0,5.823-0.243c2.279,0,4.557,0,6.836,0.243
		c0-0.728,0-1.942,0-3.398c0-3.883,0-4.611,0-8.494c0,0,0-1.456,0.506-7.766c0-1.213,0.253-2.67,1.013-3.155
		c0.76-0.728,1.772-0.485,3.798-0.243c2.025,0,1.266-0.243,5.57-0.243c4.051-0.243,5.064,0.243,8.608,0
		c1.266,0,2.532-0.243,3.291-0.485c1.266-0.243,2.279-0.485,3.545-0.485c0.76,0,1.772-0.243,2.532-0.243
		c0.253,0,0.76-0.243,1.519-0.485c3.798-0.971,4.81-1.213,6.076-1.699c0.506-0.243,0.76-0.243,1.772-0.728
		c1.772-0.728,1.519-0.485,2.279-0.728c2.025-0.728,1.772-1.456,3.798-2.184c0.253,0,0.76-0.243,1.519-0.728
		c0.253-0.243,0.506-0.485,0.76-0.971c1.266-1.456,2.025-1.699,2.279-2.67c0-0.485,0-0.485,0.253-0.728
		c0.253-0.728,0.506-0.971,1.013-1.699c0.253-0.243,0.253-0.728,0.506-1.213c0-0.485,0-1.213,0.253-2.184
		c0-1.456,0.253-1.699,0.253-2.427c0-2.427,0-2.912-0.76-4.126c-0.253-0.485-0.506-1.213-0.76-1.942
		c-0.253-1.213-0.253-1.213-0.76-1.699c-0.253-0.243-0.506-0.485-0.506-0.485c0-0.243-0.76-1.213-1.266-1.456
		c-0.253,0-0.253-0.243-0.506-0.485c-0.253-0.485-0.506-0.728-3.291-2.427c-2.532-1.456-2.785-1.699-3.545-1.942
		c-0.253,0-0.76-0.243-1.266-0.485c-0.506-0.243-1.266-0.485-1.772-0.728c-0.506-0.243-1.013-0.243-1.772-0.485
		c-2.025-0.485-3.545-0.971-4.051-0.971c-1.013-0.243-2.532-0.485-4.051-0.485c-1.013-0.243-2.785-0.485-4.81-0.728
		c-5.317-0.728-10.634-0.971-24.305-0.243C173.739,427.433,169.688,427.433,164.877,427.676z M310.962,427.676
		c-0.253,0-0.253,0-0.506,0v30.336c-0.506,7.523-0.506,15.775,0,24.269c0.253,2.184,0.253,4.368,0.506,6.553
		c2.279,0.243,4.557,0.485,6.836,0.728c2.279-0.243,4.304-0.485,6.583-0.728c0.506,0,0.76,0,1.266,0
		c0-0.243,0.253-0.728,0.253-0.971c-0.253-3.398-0.253-6.795-0.506-10.193c0.253-2.427,0.253-4.611,0.253-5.825
		c0-2.184,0.253-3.398,0-3.64c-0.253-0.485-0.506-1.213,0-1.699c0.253-0.243,0.506-0.485,0.76-0.485
		c3.291,0,6.836-0.243,10.127-0.243c3.291,0,6.583-0.243,9.621-0.485c0.76,0,1.519,0,2.025-0.243c0.76,0,1.519-0.243,2.785-0.243
		c1.013,0,1.266,0.243,1.772,0c1.013,0,1.519-0.485,2.532-0.971c0.506-0.243,1.519-0.485,2.785-0.728
		c0.76-0.243,2.025-0.485,3.291-0.971s2.025-0.971,2.785-1.213c1.266-0.728,3.038-1.699,5.57-2.67
		c1.266-1.456,2.532-2.912,3.798-4.368c0-0.243,0.253-0.485,0.506-0.971c0.506-0.971,1.266-1.699,1.266-1.699
		c0.506-0.728,1.013-2.912-0.253-10.436c-1.013-1.213-1.266-1.942-1.266-2.67c0-0.243,0-0.728-0.253-0.971
		c-0.253-0.485-0.76-0.243-1.266-0.728c-0.253,0-0.506-0.243-0.506-0.728c-0.253-0.485-0.506-0.728-0.76-0.971
		c-0.253-0.243-0.76-0.485-0.76-0.728c0-0.243-0.253-0.243-0.506-0.485c-0.253,0-0.506-0.243-0.76-0.485
		c-0.253-0.243-0.506-0.485-0.76-0.485c-0.253,0-0.506-0.243-0.506-0.485c0-0.243-0.253-0.243-0.76-0.485
		c-0.76-0.243-1.266-0.485-2.025-0.728c-0.253,0-1.013-0.243-1.772-0.243c-1.772-0.485-2.532-0.971-4.304-1.456
		c-0.506,0-1.013-0.243-2.025-0.485c-1.013,0-2.025-0.243-3.038-0.243c-2.279-0.243-4.304-0.728-6.329-0.971
		c-6.076-0.485-11.14-0.485-14.684-0.243c-3.038,0-4.81,0.243-9.621,0.485C317.798,427.676,313.747,427.676,310.962,427.676z
		 M193.234,434.714c4.81,0.243,6.583,0.243,7.089,0.485c0.506,0.243,1.266,0.485,2.785,0.485c0.506,0,1.013,0.243,1.266,0.243
		c0.253,0.243,1.013,0.243,1.266,0.485c0.506,0.243,1.266,0.485,1.772,0.728c2.279,1.213,3.038,1.699,3.291,1.942
		c0,0.243,0.506,0.485,0.76,0.728c0.506,0.243,0.506,0.485,0.76,1.213c0.253,0.485,0.253,0.971,0.76,0.971
		c0.506,0.485,0.76,0.971,0.76,3.883c0,2.912,0,3.398-0.76,3.883c-0.253,0.243-0.506,0.485-0.506,0.971
		c-0.253,0.728-0.506,1.456-1.013,1.456c-0.253,0-0.506,0.243-0.506,0.485c-0.253,0.243-0.506,0.485-0.76,0.728
		c-0.253,0-0.506,0.243-0.76,0.485c-0.253,0.243-0.506,0.485-0.76,0.485c-0.253,0-0.506,0.243-0.76,0.485
		c0,0.243-0.506,0.243-0.76,0.485c-0.253,0-1.013,0.243-1.266,0.485c-0.506,0.243-1.013,0.485-1.519,0.485s-1.266,0.243-1.519,0.485
		c-0.506,0.243-1.772,0.485-3.798,0.485c-0.506,0-1.519,0.243-1.772,0.243c-1.772,0.485-16.457,0.485-17.469,0.243
		c-1.013-0.485-0.76-0.243-0.76-11.406c0-10.436,0-11.406,0.506-11.406C179.562,434.471,186.145,434.471,193.234,434.714
		 M344.382,435.442c0.253,0,1.013,0.728,2.279,0.485c0.506,0,0.76-0.243,1.013-0.485c-0.253,0.485,0,0.971,0.253,0.971
		c0.506,0.243,1.013,0,1.266-0.485c1.013-0.243,1.519-0.243,2.025,0c0.253,0,0.506,0.243,1.013,0.485
		c0.253,0,0.506,0.243,0.506,0.243c0.76,0.243,1.519,0.971,2.532,1.699c1.013,0.728,4.81,3.883,4.81,8.251
		c0,0.971-0.253,1.941-0.506,2.427c-0.506,1.456-1.266,3.64-3.038,4.368c-1.013,0.485-1.519,0.243-2.785,0.971
		c-0.506,0.243-0.76,0.728-1.519,0.971c-0.506,0.243-0.76,0.243-1.519,0.485c-0.506,0.243-1.013,0.243-1.772,0.728
		c-1.013,0.243-1.772,0.243-2.785,0.485c-1.013,0.243-2.025,0.485-3.038,0.728c-1.266,0.485-15.191,0.485-16.204,0.243
		c-1.266-0.485-1.266,0-1.266-11.649s0-11.164,1.013-11.406c3.798,0,7.342,0.243,11.393,0.243
		C340.078,435.199,342.357,435.199,344.382,435.442z M264.124,441.752c-2.279,0.243-3.038,0.485-6.329,0.971
		c-2.279,0.243-4.051,0.485-5.57,0.728c-1.519,0.485-2.785,0.728-3.545,0.971c0,0-0.506,0-1.772,0.485
		c-0.253,0.243-0.506,0.243-0.76,0.485c-0.253,0.243-0.506,0.728-0.506,0.728c-0.253,0,0-0.485-0.253-0.485
		c-0.506-0.243-1.519,0.485-2.025,0.971c-1.519,0.971-1.266,0.485-3.291,1.699c-2.785,1.699-4.051,3.398-4.304,3.883
		c0,0.243-0.253,0.243-0.253,0.243c-0.506,0.728-1.266,1.699-1.772,3.155c-0.506,1.456-0.76,2.912-1.013,3.883
		c-0.506,1.456-0.76,2.912-1.266,4.368c-0.253,0.728-0.253,1.699-0.506,2.427c1.013,2.184,1.266,3.64,1.266,4.854
		c0,0.728,0,1.941,0.76,2.912c0.506,0.728,1.013,0.971,1.266,1.213c0,0.485,0.253,0.728,0.506,0.971
		c0.253,0.243,0.76,0.971,1.013,1.699c0,0.243,0.506,0.728,0.76,0.971c0.253,0.243,0.506,0.485,0.506,0.728
		c0,0.243,0.253,0.485,0.506,0.485c0.253,0,0.506,0.243,0.76,0.728c0.253,0.243,0.76,0.728,1.013,0.971
		c0.253,0.243,0.76,0.485,0.76,0.728c0,0.243,0.253,0.243,0.506,0.243s0.506,0.243,0.76,0.485c0.253,0.243,0.506,0.485,1.013,0.485
		c0.253,0,0.76,0.243,0.76,0.485c0,0.243,0.506,0.243,0.76,0.485c0.253,0,0.76,0.243,1.013,0.485
		c0.253,0.243,0.506,0.485,0.76,0.485c0,0,0.76,0.243,1.266,0.485c0.506,0.243,1.266,0.485,1.519,0.728
		c0.253,0,0.76,0.243,1.013,0.485c0.253,0.243,1.013,0.485,1.772,0.485c0.76,0.243,1.519,0.243,1.772,0.485
		c0.253,0.243,0.76,0.243,1.519,0.485c1.519,0.243,2.279,0.243,2.532,0.485c1.772,0.728,17.216,0.971,20.001,0.243
		c1.013-0.243,1.772-0.485,3.038-0.485s2.279-0.243,2.279-0.485c0,0,1.266-0.485,1.772-0.485c0.253,0,0.76-0.243,1.013-0.485
		c0.253-0.243,1.013-0.485,1.519-0.485c1.013-0.243,1.266-0.243,3.545-1.456c0.506-0.243,1.013-0.485,1.266-0.485
		s0.506-0.243,0.506-0.485c0.253-0.243,0.506-0.485,0.76-0.485s0.506-0.243,0.76-0.485c0.253-0.243,0.506-0.485,0.76-0.485
		c0.253,0,0.506-0.243,0.76-0.485c0-0.243,0.506-0.485,0.76-0.728c0.253-0.243,0.76-0.485,0.76-0.728
		c0.253-0.243,0.506-0.485,0.76-0.485s0.506-0.243,0.506-0.485c0.253-0.728,0.506-1.213,1.013-1.456
		c0.253-0.243,0.506-0.485,0.76-0.971c0.253-0.485,0.506-0.971,0.76-0.971c0.506-0.243,0.506-0.485,0.76-1.942
		c0.253-0.971,0.253-1.456,0.76-1.699c1.013-1.456,1.266-12.62,0.253-13.348c-0.506-0.243-0.76-0.971-0.76-1.942
		c-0.506-1.213-0.506-1.456-1.013-1.941c-0.253-0.243-0.506-0.485-0.76-0.971s-0.253-0.728-0.76-0.971
		c-0.253-0.243-0.506-0.728-0.76-0.971c-0.253-0.485-0.506-0.728-0.76-0.971c-0.506-0.485-0.76-0.728-0.76-0.728
		c-0.253-0.485,0-0.971,0-1.456c-0.253-0.243-0.506-0.485-1.772-0.485c-0.253-0.243-0.76-0.485-1.266-0.971
		c-1.772-1.456-3.038-2.184-4.557-3.155c-0.506-0.243-1.266-0.485-2.025-0.728c-0.253,0-0.76,0-1.013-0.243
		c-1.266-0.243-2.025-0.971-2.785-1.213c-0.76-0.485-2.025-0.728-3.798-0.728c-1.013,0-2.532,0-4.304-0.243
		c-2.279-0.243-3.038-0.728-4.81-0.728C267.669,441.267,265.896,441.509,264.124,441.752z M274.251,449.275
		c0.76,0.243,1.266,0.243,2.025,0.485c0.253,0.243,0.76,0.243,1.266,0.485c0.506,0,1.013,0.243,1.013,0.485
		c0.253,0,0.506,0.243,0.76,0.485c0.253,0,0.76,0.243,0.76,0.485c0,0.243,0.253,0.243,0.506,0.485c0.253,0,0.506,0.243,0.76,0.485
		c0.253,0.243,0.506,0.485,0.76,0.485s1.013,0.971,1.013,1.213c0,0,0.253,0.243,0.506,0.485c0.506,0.243,1.013,0.728,1.013,1.456
		c0,0.243,0.253,0.728,0.506,0.728c0.506,0.243,0.76,0.728,1.013,2.67c0.253,0.485,0.253,1.213,0.506,1.941
		c0.506,2.67,0.253,5.096-0.253,6.795c0,0.485,0,0.971-0.253,1.456c0,0.485-0.253,0.971-0.253,1.456
		c-0.253,0.728-0.506,1.213-0.76,1.456c-0.253,0.243-0.506,0.485-0.76,0.728c-0.253,0.485-0.253,0.971,0,1.213
		c-0.253,0.243-0.506,0.243-0.76,0.485c-1.013,0.728-1.772,1.699-2.532,2.427c-0.253,0.243-0.76,0.728-1.519,1.213
		c-1.013,0.728-2.025,0.728-2.785,0.971c-1.013,0.243-2.532,0.728-4.557,1.456c-0.253,0.243-1.013,0.728-1.772,0.728
		c-1.266,0.243-2.025,0-2.532-0.243c-1.266,0-2.279,0-3.798,0c-2.025,0-3.798-0.243-5.317-0.485
		c-0.506-0.243-1.013-0.485-1.519-0.728c-1.013-0.485-1.772-0.485-2.532-0.728c-0.506-0.485-1.266-0.728-2.025-1.213
		c-1.519-1.213-2.532-2.184-3.545-3.398c-0.253-0.485-0.506-0.971-0.76-1.213c-0.506-0.728-0.76-1.456-1.013-2.427
		c-0.253-0.485-0.253-0.971-0.253-1.213c-0.253-1.942-0.506-3.64-0.506-5.582c-0.253-1.213-0.253-2.912,0.506-4.854
		c0.253-0.728,0.506-1.456,0.76-1.942c0-0.243,0.253-0.728,0.506-1.213c0.253-0.485,0.506-0.971,0.76-1.213
		c0.253-0.485,0.253-0.728,0.76-0.971c0.253-0.243,0.506-0.243,0.506-0.485l0,0c0-0.243,0.253-0.485,1.266-1.456
		c0.253-0.243,0.506-0.485,0.76-0.728c0.253-0.243,0.506-0.243,1.013-0.485c0.253-0.243,0.506-0.243,0.76-0.485
		c0.506-0.485,1.013-0.485,1.266-0.485c0.253,0,0.76,0,1.013-0.485l0.253-0.243c0.76-0.243,1.519-0.243,2.532-0.485
		c1.266-0.243,2.279-0.485,3.545-0.485C265.896,448.79,269.947,448.547,274.251,449.275z M388.436,462.138
		c-0.253,1.213-0.253,2.427-0.506,3.398c0,1.213-0.253,2.184-0.253,3.398c4.557,0.243,9.368,0.485,14.431,0.485
		c4.051,0,8.102,0,11.899-0.243c0.253-0.971,0.506-2.184,0.506-3.398s0-2.184-0.253-2.912
		C405.652,462.623,397.044,462.381,388.436,462.138z"/>
	<path id="path1" class="st1" d="M437.552,426.705c-0.253,0-0.506,0.243-0.76,0.728l-0.506,0.485v30.094v30.094l0.253,0.485
		c0.506,0.728,0.253,0.728,7.849,0.728c6.329,0,6.836,0,7.342-0.243c1.266-0.485,1.266,0.243,1.266-11.649v-10.678l0.506-0.485
		l0.506-0.485h6.836c8.861,0,12.406-0.243,14.684-0.728c0.253,0,1.519-0.243,2.785-0.485c1.266-0.243,3.038-0.485,3.798-0.728
		s2.279-0.485,3.038-0.728c2.025-0.485,4.557-1.213,7.342-2.67c1.772-0.728,5.823-3.398,6.329-4.126
		c0.253-0.485,0.506-0.728,0.76-0.728c0,0,0.506-0.485,0.76-0.728c0.253-0.485,0.76-0.728,1.013-0.971
		c0.253-0.243,0.506-0.485,0.506-0.728c0-0.243,0.253-0.971,0.76-1.456c0.76-1.699,0.76-1.699,1.266-4.126
		c0.253-1.699,0.253-2.427,0-3.64c0-0.728-0.253-1.942-0.253-2.427c0-0.728-0.253-1.456-0.506-1.941
		c-0.253-0.485-0.76-1.213-0.76-1.699c-0.253-0.485-0.506-1.213-0.76-1.213c-0.253-0.243-0.506-0.728-0.76-0.971
		c-0.253-0.243-0.506-0.728-0.76-0.971c-0.253-0.243-0.506-0.485-0.76-0.728c-0.253-0.243-3.545-2.427-4.557-2.912
		c-1.772-0.971-5.57-2.184-8.355-2.67c-1.013-0.243-2.025-0.485-2.279-0.485c-0.253-0.243-2.279-0.485-4.81-0.728
		c-1.266,0-2.532-0.243-2.785-0.243C474.77,426.705,438.312,426.462,437.552,426.705 M517.811,426.705
		c-0.506,0.243-0.76,0.243-0.76,0.485c-0.253,0.485-0.253,60.672,0,61.401c0.253,0.728-1.519,0.728,28.609,0.728
		c30.382,0,28.103,0,28.863-0.728c0.506-0.728,0.506-7.281,0-7.523c-1.013-0.728,0-0.485-20.254-0.485h-18.735l-0.76-0.243
		c-1.013-0.485-1.013,0.485-0.76-9.708v-8.98l0.76-0.485l0.76-0.485h17.976h17.976l0.506-0.243l0.506-0.243v-3.64
		c0-4.368,0-4.126-1.519-4.368c-0.506,0-8.608,0-17.976,0c-18.735,0-17.976,0-18.482-0.728c-0.506-0.485-0.506-15.289,0-15.775
		c0.76-0.728,0-0.485,20.254-0.485c20.254,0,19.242,0,20.254-0.485c0.506-0.243,0.506-0.243,0.506-3.64c0-3.883,0-3.883-1.013-4.368
		C572.751,426.462,519.076,426.462,517.811,426.705 M467.681,435.442c4.557,0.243,7.849,0.485,8.608,0.971
		c0,0,0.506,0.243,0.76,0.243c3.291,0.728,7.089,2.912,7.849,4.854c0.253,0.243,0.506,0.971,0.76,1.456
		c0.506,0.971,0.76,4.611,0.253,5.825c-1.266,2.912-3.038,4.611-5.823,5.825c-0.506,0.243-1.013,0.485-1.266,0.485
		c-0.76,0.485-4.81,1.213-6.836,1.456c-0.506,0-1.772,0.243-2.279,0.243c-1.519,0.243-8.608,0.485-12.659,0.243h-3.038l-0.506-0.243
		c-0.506-0.485-0.506-0.728-0.76-10.921c0-10.193,0-9.95,0.76-10.436c0.253,0,0.506-0.243,0.76-0.243
		C455.275,435.199,465.149,435.199,467.681,435.442"/>
	<path id="path3" class="st2" d="M164.118,426.462c-1.266,0-1.013-3.155-1.013,31.55v31.064l0.506,0.243l0.506,0.243h7.595
		c8.355,0,8.102,0,8.355-0.728c0-0.243,0.253-3.883,0.253-11.164c0-5.825,0-10.678,0.253-10.921
		c0.506-0.485,1.266-0.485,6.076-0.485c4.557,0,11.646-0.243,14.178-0.485c3.545-0.243,8.355-0.971,9.368-1.456
		c0.253,0,1.266-0.243,2.279-0.485c1.013-0.243,2.025-0.485,2.279-0.485c1.772-0.728,2.532-0.971,2.785-0.971
		c0,0,0.76-0.243,1.266-0.485c1.519-0.485,6.583-3.398,6.583-3.64c0,0,0.253-0.243,0.506-0.485c0.253-0.243,0.76-0.728,1.013-0.971
		c1.013-1.213,1.519-1.699,1.772-2.184c0-0.243,0.253-0.485,0.506-0.728c0.253-0.243,0.506-0.728,0.76-1.213
		c0.253-0.485,0.506-1.213,0.76-1.699c1.013-1.699,1.013-8.98,0-10.436c-0.253-0.485-0.506-1.213-0.76-1.699
		c-0.253-0.971-0.506-1.213-1.013-1.699c0,0-0.253-0.485-0.506-0.728c-0.253-0.243-0.506-0.728-0.76-0.728
		c-0.253,0-0.506-0.485-0.76-0.728c-0.506-0.728-0.76-0.728-3.291-2.427c-1.266-0.728-2.279-1.456-3.038-1.699
		c-0.76-0.243-1.266-0.485-1.266-0.485c-0.506-0.243-3.038-1.213-4.81-1.456c-1.266-0.243-2.279-0.485-2.279-0.485
		c-0.506-0.243-4.304-0.728-9.114-1.213C198.804,426.462,167.409,426.22,164.118,426.462 M310.203,426.705
		c-0.76,0.485-0.76-0.243-0.76,31.307c0,31.792,0,31.064,0.76,31.307c0.76,0.243,14.938,0.243,15.444,0
		c0.76-0.243,0.76-0.971,0.76-12.134v-10.678l0.506-0.243l0.506-0.243h4.557c5.317,0,14.938-0.243,16.457-0.485
		c0.506,0,2.025-0.243,3.291-0.485c2.279-0.243,3.038-0.485,4.81-0.971c0.506-0.243,1.266-0.243,1.772-0.485
		c1.013-0.243,2.279-0.485,2.785-0.728c0.253,0,0.76-0.243,1.266-0.485c4.557-1.456,8.861-4.126,10.887-6.553
		c0.253-0.243,0.506-0.728,0.76-0.971c0.506-0.243,1.013-1.213,1.013-1.456c0,0,0.253-0.485,0.506-0.728
		c0.253-0.485,0.506-1.213,1.013-2.184c0.253-0.971,0.506-1.699,0.506-1.942c0.253-0.728,0.506-2.67,0.506-4.611
		c0-1.942-0.253-2.184-0.76-3.398c-0.253-0.243-0.506-0.971-0.506-1.699c-0.253-0.485-0.506-0.971-0.506-1.213
		c-0.253-0.243-0.506-0.728-0.76-1.213c-0.76,0.485-1.266,0-1.519-0.485c-0.253-0.243-0.76-0.728-0.76-0.971
		c-0.253-0.243-0.506-0.485-0.506-0.728c-0.253,0.243-0.506,0-0.506,0c-2.025-1.699-5.823-3.883-6.583-3.883c0,0-0.506,0-0.76-0.243
		c-2.025-0.728-3.291-1.213-4.81-1.456c-1.013-0.243-1.772-0.485-1.772-0.485c-0.253,0-4.557-0.728-5.57-0.971
		c-0.506,0-1.519-0.243-2.279-0.243C345.395,426.462,311.216,426.22,310.203,426.705 M202.601,427.676
		c0.76,0,1.519,0.243,1.772,0.243c0.253,0.243,2.785,0.485,3.545,0.485c1.013,0,2.785,0.243,3.291,0.485
		c0.253,0.243,1.266,0.243,2.025,0.485c0.76,0.243,1.519,0.485,1.519,0.485s0.506,0.243,1.266,0.485
		c0.506,0.243,1.519,0.485,1.772,0.728c0.506,0.243,1.013,0.485,1.266,0.485c0.506,0,1.013,0.243,3.545,1.942
		s3.038,1.942,3.291,2.427c0,0.243,0.253,0.485,0.506,0.485c0.253,0,1.266,0.971,1.266,1.456c0,0,0.253,0.485,0.506,0.485
		c0.506,0.243,0.506,0.485,0.76,1.699c0.253,0.728,0.253,1.456,0.76,1.942c0.76,1.213,0.76,1.699,0.76,4.126
		c0,2.427,0,2.427-1.013,4.368c0,0.243-0.253,0.728-0.253,1.456c-0.253,0.728-0.253,1.213-0.506,1.456
		c-0.253,0.243-0.506,0.485-0.506,0.728s-0.253,0.485-0.253,0.485l-0.253,0.243c0,0.243-0.253,0.243-0.253,0.485
		c-0.253,0.243-1.266,1.213-1.266,1.456c0,0-0.253,0.243-0.506,0.243c-0.253,0-0.506,0.243-0.76,0.485
		c-0.253,0.243-0.506,0.485-0.76,0.485c-0.253,0-0.506,0.243-0.76,0.485c0,0.243-0.253,0.243-0.506,0.485
		c-0.253,0-0.506,0.243-0.76,0.485c-0.253,0.243-0.506,0.485-0.76,0.485c-0.253,0-0.76,0.243-0.76,0.485
		c-0.253,0.243-0.506,0.243-0.506,0.243c-0.506,0-1.519,0.485-1.772,0.485c-0.253,0-0.506,0.243-1.013,0.485
		c-0.506,0.243-1.013,0.243-1.266,0.485c-0.253,0.243-1.013,0.243-1.772,0.485c-0.76,0.243-1.519,0.243-1.772,0.485
		c-0.253,0-1.013,0.243-1.772,0.485c-0.76,0.243-1.519,0.243-2.025,0.485c-0.506,0.243-1.772,0.243-3.291,0.485
		c-1.266,0-3.038,0.243-3.798,0.485c-2.279,0.485-3.545,0.485-12.153,0.485c-6.329,0-8.355,0-8.861,0.243
		c-1.013,0.243-1.013,0-1.013,11.649c0,8.009,0,10.921-0.253,11.164l-0.253,0.243h-6.836c-6.329,0-6.836,0-7.342-0.243l-0.506-0.243
		v-30.336v-30.094l0.506-0.243C165.384,427.433,200.323,427.433,202.601,427.676 M348.939,427.676c0.253,0,0.76,0,1.013,0
		s0.253,0,0.506,0s1.266,0.243,2.279,0.243c2.785,0.243,4.051,0.485,4.557,0.728c0.506,0.243,2.532,0.728,3.291,0.728
		c0,0,0.506,0.243,0.76,0.243c0.253,0.243,1.013,0.485,1.266,0.485c0.506,0,1.013,0.243,1.519,0.485
		c0.506,0.243,1.013,0.485,1.266,0.485s0.76,0.243,0.76,0.243c0.253,0,0.506,0.243,1.013,0.485c0.506,0.243,0.76,0.485,0.76,0.485
		s0.253,0.243,0.506,0.485c0.253,0,0.76,0.485,0.76,0.485c0.253,0.243,0.506,0.485,0.76,0.485c0.253,0,0.506,0.243,0.506,0.485
		c0,0.728,0.506,0.485,0.76,0.728c0.76,0.971,0.76,1.699,1.266,1.941c0.253,0,0.253,0,0.506,0s0.506,0.243,0.506,1.213
		c0.253,0.728,0.506,1.213,0.506,1.456c0.253,0.243,0.506,0.243,0.506,0.485c0.76,0.728,0.76,10.436,0,11.164
		c-0.506,0.485-0.76,0.728-1.013,1.699s-0.253,0.971-0.76,1.456c-0.253,0.243-0.76,0.485-0.76,0.728
		c0,0.243-0.253,0.485-0.506,0.728c-0.253,0.243-0.76,0.485-0.76,0.728c-0.253,0.243-0.506,0.728-0.76,0.728
		s-0.506,0.243-0.76,0.485c-0.506,0.485-1.266,0.728-1.519,0.971c-0.253,0-0.506,0.243-0.506,0.485c-0.253,0-0.506,0.243-0.76,0.243
		s-0.506,0.243-0.76,0.485c-0.253,0.243-0.76,0.485-1.266,0.728c-0.506,0.243-1.013,0.243-1.013,0.485c0,0-0.506,0.243-1.013,0.243
		c-0.506,0-1.266,0.243-1.519,0.485c-0.506,0.243-1.013,0.485-1.519,0.485c-0.506,0-1.266,0.243-1.519,0.485
		c-0.506,0.243-1.519,0.485-2.279,0.485c-0.759,0.485-1.519,0.485-1.772,0.728c-0.506,0.243-1.013,0.243-4.304,0.485
		c-1.013,0-2.279,0.243-2.785,0.485c-1.266,0.243-6.836,0.485-14.178,0.485c-5.317,0-5.57,0-6.076,0.243
		c-1.266,0.485-1.013,0.243-1.013,11.892v10.678l-0.506,0.243l-0.506,0.243h-6.583c-3.545,0-6.836,0-6.836,0
		c-0.253,0-0.253-6.31-0.253-30.336v-30.822c0.253,0,0.253,0,0.506,0C323.875,427.676,336.28,427.676,348.939,427.676z
		 M180.575,434.714c-1.519,0.243-1.519-0.485-1.519,11.649c0,11.406,0,10.921,0.76,11.406c0.76,0.485,15.697,0.243,17.469-0.243
		c0.506,0,1.266-0.243,1.772-0.243c2.025-0.243,3.291-0.243,3.798-0.485c0.253-0.243,1.013-0.243,1.519-0.485
		c0.506,0,1.266-0.243,1.519-0.485c0.506-0.243,1.013-0.485,1.266-0.485c0.253,0,0.76-0.243,0.76-0.485s0.506-0.243,0.76-0.485
		c0.253,0,0.76-0.243,0.76-0.485c0.253-0.243,0.506-0.485,0.76-0.485c0.253,0,0.506-0.485,0.76-0.728
		c0.253-0.243,0.506-0.485,0.506-0.485c0.506,0,0.76-0.728,1.013-1.456c0-0.485,0.253-0.728,0.506-0.971
		c0.76-0.485,0.76-0.971,0.76-3.883c0-2.912,0-3.398-0.76-3.883c-0.253-0.243-0.506-0.485-0.76-0.971
		c-0.253-0.485-0.253-0.728-0.76-1.213c-0.253-0.243-0.76-0.485-0.76-0.728c-0.253-0.243-1.013-0.728-3.291-1.942
		c-0.506-0.243-1.266-0.485-1.772-0.728s-1.013-0.243-1.266-0.485c-0.253-0.243-0.76-0.243-1.266-0.243
		c-1.266,0-2.279-0.243-2.785-0.485C200.07,434.714,183.613,434.229,180.575,434.714 M326.406,434.714
		c-1.013,0.243-1.013,0-1.013,11.406c0,11.649,0,11.406,1.266,11.649c1.013,0.243,14.938,0.243,16.204-0.243
		c0.253,0,1.266-0.243,2.279-0.243c2.279-0.243,2.785-0.243,3.545-0.485c0.253-0.243,1.266-0.243,1.772-0.485
		c0.76-0.243,1.266-0.243,1.519-0.485c0.253-0.243,0.76-0.243,1.013-0.485c0.506-0.243,1.772-0.728,2.785-1.213
		c0.76-0.243,2.532-1.213,3.291-3.155c0.253-0.485,0.253-0.971,0.506-1.213c0-0.728,0.253-1.213,0.506-1.699
		c0.506-0.728,0.506-2.912,0-3.64c-0.253-0.485-0.506-1.213-0.76-2.427c0-0.485-0.253-0.728-0.76-1.213
		c-0.253-0.243-0.76-0.728-0.76-0.971c-0.253-0.728-4.051-2.912-5.317-3.155c-0.253,0-0.76-0.243-1.013-0.485
		c-0.506-0.243-1.013-0.485-2.279-0.485c-0.76,0-1.519-0.243-1.772-0.243 M197.285,435.685c4.051,0.243,8.355,1.213,8.861,1.699
		c0,0,0.506,0.243,0.76,0.243c1.013,0.243,3.798,1.942,4.051,2.427c0.253,0.243,0.506,0.728,0.76,0.971
		c0.506,0.728,1.519,4.126,1.519,5.339c-0.253,1.942-1.266,4.368-2.025,4.854c-0.253,0.243-0.506,0.485-0.506,0.485
		c0,0.485-3.038,2.184-4.304,2.67c-3.291,1.213-4.304,1.456-7.595,1.942c-4.81,0.728-16.457,0.971-17.976,0.485
		c-1.013-0.243-1.013,0.243-1.013-10.678c0-10.678,0-9.95,1.013-10.436C181.841,435.442,193.993,435.442,197.285,435.685
		 M342.104,435.685c2.532,0,5.57,0.485,6.583,0.728c0.506,0,1.013,0.243,1.519,0.243s1.266,0.243,1.772,0.485
		s1.266,0.485,1.519,0.485c0.506,0.243,1.772,0.971,3.291,1.942c0.506,0.243,0.76,0.728,1.013,1.213s0.506,0.971,0.76,0.971
		c1.013,0.971,1.013,8.009,0,8.251c0,0-0.253,0.485-0.76,0.971c-0.253,0.485-0.76,0.971-1.013,1.213
		c-0.253,0.243-0.76,0.485-1.266,0.971c-1.519,1.213-3.291,1.699-5.57,2.427c-0.506,0.243-1.519,0.243-2.025,0.485
		c-0.76,0.243-1.519,0.243-2.279,0.485c-0.76,0-1.772,0.243-2.532,0.243c-4.051,0.485-15.444,0.485-16.204,0
		c-0.506-0.243-0.76-20.386-0.253-20.871l0.253-0.243h6.33C337.04,435.442,340.838,435.685,342.104,435.685 M261.592,441.024
		c-3.038,0.243-3.798,0.485-6.329,0.728c-1.519,0.243-3.038,0.485-3.038,0.485s-1.013,0.243-2.279,0.728
		c-1.013,0.243-2.532,0.728-3.038,0.971c-1.013,0.243-2.532,0.971-3.798,1.699c-3.038,1.699-3.798,2.184-4.051,2.427
		c-0.253,0.243-0.506,0.485-0.506,0.485s-0.506,0.243-0.76,0.485c-0.253,0.243-0.76,0.728-1.013,0.728
		c-0.253,0.243-0.506,0.485-0.76,0.728c-0.253,0.243-0.76,0.728-0.76,0.728c-0.253,0-0.506,0.485-0.506,0.971
		c-0.253,0.485-0.506,0.728-0.76,0.971c-0.253,0.243-0.506,0.728-0.76,0.971c-0.253,0.485-0.506,0.971-0.76,1.213
		c-0.253,0.243-0.506,0.971-0.76,1.699c-0.253,0.728-0.506,1.699-0.76,1.941c-0.506,0.728-0.506,2.184-0.76,5.582
		c-0.253,3.155,1.013,8.494,2.279,10.193c0.253,0.485,0.506,0.971,0.76,1.456c0.253,0.485,0.506,0.971,0.76,1.213
		c0.253,0.243,0.506,0.728,0.76,0.971c0.253,0.243,0.506,0.728,0.76,0.728c0.253,0,0.506,0.485,1.013,0.728
		c0.253,0.243,0.76,0.728,0.76,0.728c0.253,0,0.506,0.485,0.76,0.728s0.506,0.485,0.506,0.485s0.506,0.243,0.76,0.728
		c0.506,0.485,1.772,1.213,3.545,2.184c0.506,0.243,1.519,0.728,2.025,1.213c0.506,0.243,1.266,0.728,1.266,0.728
		s0.253,0.243,0.76,0.243c0.253,0.243,1.013,0.485,1.519,0.485c0.506,0.243,1.266,0.485,1.519,0.485
		c0.253,0.243,1.266,0.485,2.025,0.485c0.76,0.243,1.519,0.243,1.519,0.485c0.506,0.243,3.038,0.728,5.57,0.971
		c7.342,0.971,18.482,0.243,24.052-1.456c3.798-1.213,5.823-1.941,6.329-2.184c0.253,0,0.76-0.485,1.519-0.728
		c1.266-0.485,2.785-1.456,3.798-2.427c1.519-0.971,1.772-1.456,2.025-1.699c0-0.243,0.506-0.485,0.76-0.485
		c0.253-0.243,0.76-0.485,1.013-0.971c0.253-0.243,0.506-0.728,0.76-0.728s0.506-0.728,0.76-1.213s0.506-0.971,0.76-0.971
		s0.76-0.971,1.013-1.699c0-0.243,0.253-0.728,0.506-0.971c0.506-0.728,0.76-2.184,1.519-7.523c0.253-0.971,0-4.126-0.253-4.126
		c0,0-0.253-0.728-0.253-1.456c-0.253-1.942-0.76-3.398-1.013-3.883c-0.253-0.243-0.506-0.971-0.76-1.456
		c-0.506-1.213-0.506-1.213-1.013-1.699c-0.253,0-0.506-0.485-0.76-0.971s-0.506-0.728-0.76-0.971c-0.253,0-0.506-0.485-0.76-0.971
		s-0.76-0.971-1.013-0.971c-0.253-0.243-0.506-0.485-0.76-0.728c-0.253-0.243-0.506-0.485-0.506-0.485
		c-0.253,0-0.506-0.485-1.013-0.728c-0.76-0.728-1.266-0.971-3.798-2.427c-3.038-1.699-3.798-1.941-4.557-2.184
		c-0.253,0-1.519-0.485-2.785-0.971c-1.519-0.485-2.532-0.728-4.051-0.971c-1.013-0.243-2.532-0.485-3.291-0.485
		C273.239,441.024,267.922,440.781,261.592,441.024 M269.694,441.995c1.266,0,2.532,0.243,3.038,0.243
		c1.772,0,4.304,0.243,5.57,0.728c0.76,0.243,2.025,0.485,3.038,0.485c0.76,0,1.266,0.243,1.519,0.485
		c0.253,0.243,1.013,0.485,1.519,0.485s1.266,0.243,1.519,0.485c0.253,0.243,0.76,0.243,1.266,0.485
		c0.506,0.243,1.013,0.485,1.013,0.485c0,0.243,0.506,0.243,0.76,0.485c0.253,0,0.76,0.243,0.76,0.485c0,0,0.253,0.243,0.76,0.485
		c0.76,0.243,3.545,2.184,3.798,2.427c0,0.243,0.506,0.485,0.76,0.485s0.506,0.243,0.76,0.485c0,0.243,0.506,0.485,0.76,0.728
		c0.253,0.243,0.76,0.728,0.76,0.971c0.253,0.243,0.506,0.728,0.76,0.971c0.253,0.243,0.506,0.485,0.76,0.971
		c0,0.243,0.506,0.728,0.76,0.971c0.506,0.485,0.76,0.728,0.76,1.942c0.253,0.971,0.506,1.699,0.76,1.941
		c0.506,0.243,0.76,1.942,0.76,6.553c0,4.854,0,6.067-0.76,6.795c-0.253,0.485-0.506,0.971-0.76,1.699
		c-0.253,1.456-0.253,1.699-0.76,1.941c-0.253,0-0.506,0.485-0.76,0.971c0,0.485-0.253,0.971-0.506,0.971
		c-0.253,0.243-0.76,0.485-1.013,1.456c0,0.243-0.253,0.243-0.506,0.485c-0.253,0-0.506,0.243-0.76,0.485
		c-0.253,0.243-0.506,0.485-0.76,0.728s-0.76,0.485-0.76,0.728c0,0.243-0.506,0.485-0.76,0.485s-0.506,0.243-0.76,0.485
		c-0.253,0.243-0.506,0.485-0.76,0.485s-0.506,0.243-0.76,0.485c-0.253,0.243-0.506,0.485-0.506,0.485
		c-0.253,0-0.76,0.243-1.266,0.485c-2.279,1.213-2.532,1.456-3.545,1.456c-0.506,0-1.266,0.243-1.519,0.485
		c-0.253,0.243-0.76,0.243-1.013,0.485c-0.506,0-1.772,0.485-1.772,0.485c0,0.243-1.013,0.243-2.279,0.485
		c-1.266,0-2.025,0.243-3.038,0.485c-2.785,0.728-18.229,0.728-20.001-0.243c-0.253,0-1.266-0.243-2.532-0.485
		c-0.506,0-1.266-0.243-1.519-0.485c-0.253-0.243-1.013-0.485-1.772-0.485c-0.76-0.243-1.519-0.485-1.772-0.485
		c-0.253-0.243-0.76-0.243-1.013-0.485c-0.253,0-1.013-0.243-1.519-0.728c-0.506-0.243-1.013-0.485-1.266-0.485
		c0,0-0.506-0.243-0.76-0.485c-0.253-0.243-0.76-0.485-1.013-0.485c-0.253,0-0.506-0.243-0.76-0.485c0-0.243-0.506-0.243-0.76-0.485
		c-0.253,0-0.76-0.243-1.013-0.485c-0.253-0.243-0.506-0.485-0.76-0.485c-0.253,0-0.506-0.243-0.506-0.243s-0.253-0.485-0.76-0.728
		c-0.253-0.243-0.76-0.728-1.013-0.971c-0.253-0.243-0.506-0.485-0.76-0.728c-0.253,0-0.506-0.243-0.506-0.485
		c0-0.243-0.253-0.485-0.506-0.728c-0.253-0.243-0.506-0.728-0.76-0.971c-0.253-0.728-0.76-1.456-1.013-1.699
		c-0.253-0.243-0.253-0.485-0.506-0.971c-0.253-0.728-0.506-1.213-1.013-1.699c0,0.485-0.253,0-0.253-1.699
		c-0.253-1.942-0.506-3.155-1.013-3.883c-0.253-0.485-0.506-3.155,0-3.64c0.253-0.243,0.76-2.427,1.013-4.368
		c0.253-1.213,0.253-1.941,0.506-2.184c0.253-0.485,0.76-1.213,1.013-2.184c0-0.243,0.253-0.728,0.506-0.728
		c0.506-0.243,1.013-0.971,1.013-1.456c0-0.243,0.253-0.485,0.506-0.728c0.253-0.243,0.506-0.485,0.76-0.728
		c0.253-0.243,0.506-0.485,0.76-0.728c0.253,0,0.506-0.243,0.76-0.485c0.253-0.243,0.76-0.485,1.013-0.728
		c0.506-0.243,0.76-0.485,0.76-0.728c0-0.243,0.253-0.243,0.506-0.243c0.253,0,0.76-0.243,1.013-0.485
		c1.772-0.971,2.025-1.213,2.785-1.456c0.506-0.243,0.76-0.485,1.013-0.485c0.253-0.243,0.76-0.243,1.266-0.485
		c0.506-0.243,1.013-0.243,1.013-0.485c0,0,0.506-0.243,1.013-0.485c0.506,0,1.266-0.243,1.519-0.485
		c0.76-0.243,1.266-0.485,2.785-0.728c0.76,0,1.519-0.243,1.772-0.243c0.76-0.243,2.532-0.485,5.064-0.728
		c2.785-0.243,4.81-0.243,5.317-0.485C265.896,441.752,267.415,441.752,269.694,441.995 M263.365,448.547
		c-0.76,0-1.519,0.243-2.532,0.485c-0.76,0.243-1.266,0.243-1.519,0.243c-0.76,0-1.772,0.243-2.025,0.485
		c-0.253,0.243-0.76,0.485-1.266,0.485c-0.506,0-1.013,0.243-1.266,0.485c0,0-0.506,0.243-1.013,0.485
		c-0.506,0.243-0.76,0.485-0.76,0.485s-0.253,0.243-0.506,0.485c-0.76,0.485-1.519,0.971-1.519,1.213c0,0-0.253,0.243-0.506,0.485
		c-0.506,0.243-0.506,0.485-0.76,0.971c-0.253,0.728-0.506,1.213-0.76,1.213s-0.506,0.485-0.76,1.699
		c-0.506,0.971-0.506,1.456-0.76,1.699c-0.76,0.728-0.76,1.699-0.76,6.553v4.611l0.506,0.485c0.506,0.485,0.506,0.728,0.76,1.456
		c0.253,1.213,0.506,1.941,1.013,2.184c0.253,0.243,0.506,0.485,0.76,0.971c0.253,0.485,0.506,0.728,0.76,0.971
		c0.253,0.243,0.506,0.485,0.76,0.728s0.506,0.485,0.76,0.728c0.253,0,0.506,0.243,0.76,0.485c0,0.243,0.506,0.485,0.76,0.485
		s0.76,0.243,0.76,0.485c0.253,0.243,0.506,0.485,0.76,0.485c0.253,0,0.76,0.243,0.76,0.243s0.506,0.243,1.013,0.485
		c0.506,0.243,1.013,0.485,1.266,0.485s0.76,0.243,1.519,0.243c1.266,0.243,4.051,0.485,5.57,0.728
		c1.266,0.243,2.785,0.243,5.064-0.243c0.76,0,2.279-0.243,3.291-0.485c1.266-0.243,1.772-0.243,2.279-0.485
		c0.253-0.243,0.76-0.243,1.266-0.485c0.506,0,1.013-0.243,1.266-0.485c0.253-0.243,0.76-0.485,1.013-0.485
		c0.253-0.243,0.76-0.243,0.76-0.485c0,0,0.506-0.485,1.013-0.728c1.772-0.971,2.025-1.456,2.279-1.942
		c0-0.243,0.506-0.485,0.506-0.728c0.506-0.485,1.013-0.971,1.013-1.699c0-0.485,0.253-0.728,0.506-0.728
		c0.76-0.485,1.013-0.971,1.013-2.67c0-1.213,0.253-1.941,0.506-2.184c1.013-1.213,0.76-6.553,0-7.523
		c-0.253-0.243-0.253-0.971-0.506-1.942c-0.253-1.941-0.506-2.427-1.013-2.67c-0.253-0.243-0.506-0.485-0.506-0.728
		c-0.253-0.728-0.506-1.213-1.013-1.456c-0.253-0.243-0.506-0.243-0.506-0.485c0-0.243-0.506-1.213-1.013-1.213
		c-0.253,0-0.506-0.243-0.76-0.485c-0.253-0.243-0.506-0.485-0.76-0.485s-0.506-0.243-0.506-0.485c0-0.243-0.506-0.485-0.76-0.485
		s-0.76-0.243-0.76-0.485c-0.253,0-0.506-0.243-1.013-0.485c-0.506,0-1.013-0.243-1.266-0.485c-0.253-0.243-1.013-0.485-2.025-0.485
		c-0.76-0.243-2.025-0.485-2.532-0.485C270.707,448.547,265.643,448.547,263.365,448.547 M269.694,449.761
		c2.785,0.243,5.57,0.728,6.329,0.971c0.253,0,0.76,0.243,1.519,0.485c1.266,0.485,2.785,1.213,3.545,2.184
		c0.253,0.243,0.76,0.728,1.013,0.728s0.506,0.485,0.76,0.971s0.76,0.971,0.76,0.971c0.253,0,0.506,0.485,0.506,0.971
		c0.253,0.485,0.506,1.213,0.76,1.699c0.76,1.456,0.76,1.699,1.013,4.368c0.253,4.126,0,8.009-1.013,9.222
		c-0.253,0.243-0.506,0.728-0.76,1.456c-0.253,0.485-0.506,1.213-0.76,1.213s-0.506,0.485-0.76,0.971s-0.76,0.971-1.266,1.213
		c-0.253,0.243-0.76,0.485-1.266,0.728c-1.519,0.971-2.279,1.456-4.304,2.184c-4.304,1.456-11.14,1.699-17.216,0.485
		c-0.253,0-0.76-0.243-1.266-0.243c-0.253-0.243-0.76-0.243-1.266-0.485c-1.266-0.485-4.557-2.427-5.064-3.398
		c0-0.243-0.506-0.485-0.76-0.728c-0.253-0.243-0.76-0.728-0.76-1.213c-0.253-0.485-0.506-0.971-0.76-1.213
		c-0.253-0.243-0.506-0.971-0.506-1.456c-0.253-0.971-0.506-2.184-1.013-3.64c-0.253-0.971-0.253-5.096,0-6.067
		c0.506-2.67,1.266-4.611,1.519-5.096c0.253-0.243,0.506-0.728,0.506-1.213c0.253-0.485,0.506-0.971,0.76-0.971
		c0.253-0.243,0.506-0.728,0.76-0.971c0.253-0.243,0.76-0.728,1.013-0.971c0.253-0.243,0.76-0.485,1.013-0.728
		c2.279-1.699,6.583-2.912,10.887-3.155C266.656,449.518,266.909,449.518,269.694,449.761 M388.436,462.138
		c-1.013,0.243-1.266,6.31-0.506,7.281c0.506,0.485,0.506,0.485,13.925,0.485h12.153l0.506-0.485l0.506-0.485v-2.67
		c0-2.912,0-3.155-0.76-3.883C413.754,461.895,388.942,461.895,388.436,462.138 M414.007,462.866c0.253,0.243,0.253,5.582,0,5.825
		c0,0.243-23.039,0.243-24.812,0h-0.76v-2.912v-2.912h0.506C390.461,462.623,414.007,462.866,414.007,462.866"/>
</g>
<path class="st0" d="M253.907,499.25"/>
<path class="st2" d="M291.429,495.607"/>
<path class="st0" d="M337.693,498.521"/>
<path class="st0" d="M546.429,684.307"/>
<g id="svgg_1_">
	<path id="path0_1_" class="st3" d="M140.466,415.363c-1.202,0.1-3.006,0.734-3.847,1.301c-0.331,0.2-0.751,0.5-0.932,0.601
		c-1.293,0.834-2.856,2.669-3.757,4.504c-0.451,0.901-0.932,2.402-1.232,3.937c-0.24,1.168-0.451,1.401-2.525,2.636
		c-0.271,0.167-0.601,0.4-0.751,0.5s-0.721,0.467-1.293,0.834c-0.571,0.367-1.202,0.767-1.413,0.901s-0.631,0.4-0.962,0.601
		c-0.331,0.2-1.052,0.667-1.593,1.001c-0.541,0.367-1.262,0.834-1.623,1.001c-0.331,0.2-0.782,0.5-1.022,0.667
		s-0.451,0.334-0.481,0.334s-0.391,0.234-0.812,0.5c-0.391,0.267-0.751,0.5-0.812,0.5c-0.09,0-1.653,1.034-2.104,1.401
		c-0.18,0.133-0.721,0.467-1.202,0.767c-1.112,0.634-1.533,0.901-1.743,1.101c-0.18,0.2-1.142,0.734-1.262,0.734
		c-0.03,0-0.301,0.167-0.571,0.4c-1.323,1.068-1.743,1.168-2.916,0.701c-2.465-0.968-3.126-1.101-5.23-1.101
		c-3.757,0-7.154,1.735-9.619,4.938c-0.721,0.934-0.812,1.068-0.992,1.401c-0.09,0.167-0.21,0.4-0.301,0.5
		c-0.09,0.1-0.301,0.534-0.451,0.968c-0.15,0.434-0.361,0.901-0.451,1.001c-0.09,0.1-0.21,0.467-0.24,0.834
		c-0.06,0.367-0.24,1.134-0.361,1.735c-0.391,1.568-0.391,3.837,0,5.405c0.15,0.601,0.331,1.368,0.361,1.702
		c0.06,0.334,0.18,0.767,0.331,1.001c0.12,0.234,0.301,0.601,0.391,0.868c0.481,1.301,2.254,3.737,3.637,4.871
		c0.992,0.834,0.962,0.334,0.902,8.175l-0.06,6.573l-0.271,0.601c-0.15,0.334-0.301,0.901-0.391,1.268
		c-0.06,0.367-0.18,1.068-0.271,1.568c-0.331,1.868-0.361,2.135-0.301,3.303c0.03,0.634,0.15,1.668,0.271,2.302
		c0.12,0.601,0.271,1.401,0.331,1.735c0.06,0.334,0.21,0.801,0.331,1.001s0.301,0.667,0.391,1.034
		c0.09,0.334,0.24,0.734,0.361,0.901c0.09,0.133,0.271,0.5,0.421,0.767c0.12,0.267,0.331,0.634,0.451,0.801
		c0.12,0.167,0.301,0.434,0.421,0.601c0.812,1.268,1.864,2.369,3.517,3.67c2.916,2.302,7.605,3.203,11.182,2.169
		c0.451-0.133,0.962-0.267,1.172-0.334s0.601-0.234,0.902-0.367c0.271-0.167,0.571-0.267,0.601-0.267
		c0.09,0,1.262-0.734,2.074-1.335c1.082-0.767,2.164-1.835,2.976-2.97c0.21-0.3,0.481-0.634,0.571-0.701
		c0.09-0.067,0.18-0.2,0.18-0.3c0-0.067,0.18-0.467,0.421-0.868s0.481-0.901,0.541-1.101c0.06-0.2,0.24-0.567,0.361-0.767
		c0.12-0.2,0.301-0.634,0.361-0.934s0.24-0.968,0.421-1.501c0.601-1.969,0.631-6.673,0.03-8.108
		c-0.15-0.334-0.331-0.934-0.391-1.335c-0.09-0.367-0.271-0.867-0.391-1.101c-0.15-0.234-0.331-0.634-0.421-0.934
		s-0.24-0.634-0.361-0.734c-0.12-0.1-0.301-0.4-0.421-0.667c-0.24-0.5-1.202-1.768-2.194-2.836c-0.361-0.4-0.782-0.934-0.902-1.201
		c-0.12-0.267-0.271-0.467-0.301-0.467s-0.18-0.267-0.331-0.601c-0.15-0.334-0.391-0.767-0.511-0.968
		c-0.15-0.2-0.301-0.567-0.361-0.801c-0.06-0.234-0.18-0.467-0.24-0.534c-0.09-0.067-0.271-0.334-0.421-0.667
		c-0.511-1.068-0.872-1.735-1.082-2.102c-0.12-0.2-0.331-0.601-0.481-0.901c-0.15-0.3-0.451-0.901-0.661-1.268
		c-0.932-1.635-0.932-1.969,0-3.37c0.331-0.5,0.601-1.001,0.601-1.034c0-0.067,0.18-0.534,0.391-1.001
		c0.21-0.5,0.451-1.201,0.511-1.602c0.06-0.4,0.21-1.068,0.301-1.468c0.12-0.4,0.24-1.335,0.301-2.069l0.09-1.301l0.451-0.434
		c0.24-0.234,0.631-0.534,0.842-0.667c0.631-0.367,1.954-1.201,2.254-1.401c0.15-0.1,0.511-0.334,0.812-0.534
		c1.383-0.834,2.735-1.702,3.006-1.902c0.15-0.133,0.331-0.234,0.361-0.234s0.391-0.234,0.812-0.5c0.421-0.267,0.782-0.5,0.842-0.5
		c0.06,0,0.271-0.167,0.511-0.334c0.24-0.2,0.601-0.434,0.782-0.534c0.541-0.267,2.044-1.268,2.284-1.501
		c0.12-0.1,0.421-0.3,0.691-0.434c0.271-0.133,1.112-0.667,1.894-1.168s1.443-0.934,1.503-0.934s0.391-0.2,0.721-0.467
		c0.331-0.234,1.232-0.834,1.984-1.268l1.353-0.801l0.511,0.2c2.825,1.201,5.05,1.468,7.454,0.834
		c1.773-0.467,4.419-2.069,5.29-3.236c0.21-0.267,0.601-0.767,0.932-1.134c0.301-0.367,0.571-0.701,0.571-0.767
		c0-0.067,0.12-0.334,0.301-0.634c0.872-1.535,1.353-3.303,1.563-5.939c0.12-1.468-0.361-4.204-0.992-5.572
		c-0.842-1.802-1.022-2.135-1.713-2.903c-0.361-0.4-0.721-0.867-0.812-1.034s-0.24-0.3-0.301-0.3s-0.24-0.133-0.391-0.3
		c-0.15-0.167-0.451-0.4-0.661-0.534c-0.21-0.133-0.571-0.367-0.782-0.567C146.087,415.797,142.991,415.096,140.466,415.363"/>
	<path id="path1_1_" class="st4" d="M88.135,399.615c-0.691,0.067-1.984,0.5-3.276,1.034c-0.902,0.367-2.224,1.234-3.547,2.269
		c-0.661,0.5-2.314,2.369-2.825,3.17c-0.24,0.367-0.601,0.901-0.782,1.168c-0.18,0.267-0.331,0.5-0.331,0.567s-0.12,0.3-0.271,0.5
		s-0.361,0.634-0.451,0.968c-0.09,0.334-0.271,0.767-0.391,0.968c-0.12,0.2-0.301,0.834-0.391,1.401
		c-0.09,0.567-0.271,1.201-0.361,1.435c-0.481,1.268-0.481,6.206,0,7.24c0.09,0.167,0.24,0.734,0.361,1.301
		c0.12,0.534,0.301,1.168,0.421,1.435c0.12,0.267,0.301,0.701,0.391,1.001c0.18,0.534,0.541,1.201,1.262,2.336
		c0.18,0.3,0.361,0.601,0.361,0.701c0,0.067,0.09,0.2,0.21,0.267c0.12,0.067,0.301,0.3,0.451,0.567
		c0.12,0.234,0.331,0.467,0.421,0.5c0.09,0.033,0.24,0.2,0.331,0.334c0.06,0.167,0.271,0.367,0.421,0.467
		c0.421,0.3,1.713,2.035,1.924,2.569c0.12,0.267,0.24,0.534,0.271,0.567c0.12,0.1,0.902,1.501,1.172,2.102
		c0.15,0.334,0.331,0.667,0.451,0.767c0.09,0.067,0.24,0.367,0.331,0.634c0.09,0.267,0.331,0.701,0.511,0.968
		c0.21,0.267,0.361,0.534,0.361,0.601c0,0.067,0.12,0.3,0.301,0.5c0.15,0.2,0.331,0.567,0.421,0.801
		c0.06,0.234,0.18,0.5,0.271,0.534c0.09,0.067,0.271,0.367,0.421,0.734c0.15,0.334,0.391,0.801,0.511,1.001
		c0.331,0.5,0.361,1.435,0.06,1.835c-0.12,0.133-0.301,0.467-0.421,0.734c-0.12,0.267-0.331,0.601-0.451,0.801
		c-0.15,0.2-0.271,0.4-0.271,0.467c0,0.234-0.391,1.068-0.601,1.335c-0.12,0.133-0.21,0.4-0.21,0.567
		c0,0.467-0.24,1.468-0.511,2.069c-0.21,0.467-0.24,0.834-0.301,2.402c-0.03,1.101-0.12,1.969-0.21,2.135
		c-0.15,0.334-1.954,1.702-2.795,2.102c-0.271,0.133-0.631,0.334-0.782,0.467c-0.481,0.4-1.834,1.301-1.924,1.301
		c-0.06,0-0.361,0.2-0.721,0.434c-0.331,0.234-0.661,0.434-0.721,0.434c-0.06,0-0.391,0.234-0.751,0.5
		c-0.361,0.267-0.691,0.5-0.721,0.5c-0.03,0-0.18,0.1-0.271,0.2c-0.12,0.1-0.571,0.434-1.022,0.667
		c-0.932,0.534-1.022,0.601-2.164,1.435c-0.481,0.334-1.082,0.734-1.323,0.868c-0.271,0.133-0.631,0.367-0.812,0.534
		c-0.18,0.133-0.451,0.3-0.571,0.367c-0.15,0.033-0.331,0.167-0.451,0.267c-0.24,0.234-1.563,1.101-2.014,1.301
		c-0.15,0.067-0.421,0.267-0.601,0.4c-0.18,0.133-0.571,0.434-0.902,0.634s-0.932,0.601-1.323,0.867
		c-0.391,0.267-0.751,0.5-0.812,0.5s-0.391,0.234-0.751,0.534s-0.902,0.634-1.202,0.734l-0.541,0.2l-0.962-0.4
		c-3.787-1.568-7.004-1.368-10.55,0.634c-1.383,0.767-3.246,2.536-3.908,3.704c-0.15,0.234-0.361,0.567-0.481,0.734
		c-0.12,0.167-0.361,0.567-0.541,0.934c-0.18,0.367-0.361,0.734-0.391,0.767c-0.03,0.067-0.12,0.367-0.21,0.667
		c-0.06,0.3-0.24,0.801-0.361,1.101c-0.631,1.368-0.631,6.64,0,8.074c0.12,0.3,0.331,0.834,0.421,1.134
		c0.09,0.334,0.21,0.634,0.271,0.667c0.06,0.033,0.24,0.4,0.421,0.801c0.18,0.4,0.391,0.801,0.481,0.868s0.18,0.2,0.18,0.267
		c0,0.234,1.864,2.436,2.074,2.436c0.06,0,0.21,0.133,0.361,0.334c0.12,0.167,0.421,0.434,0.631,0.567
		c0.21,0.133,0.721,0.434,1.112,0.701c0.661,0.4,1.323,0.701,2.645,1.168c1.894,0.634,4.629,0.5,7.244-0.4
		c1.773-0.601,3.998-2.402,5.32-4.271c0.24-0.367,0.541-0.734,0.661-0.867s0.24-0.367,0.271-0.5c0.03-0.167,0.21-0.534,0.391-0.867
		c0.18-0.3,0.391-0.801,0.451-1.101c0.06-0.3,0.18-0.734,0.301-0.934c0.24-0.534,0.391-1.168,0.511-2.169
		c0.15-1.301,0.541-1.768,2.224-2.703c0.18-0.1,0.511-0.334,0.691-0.5c0.18-0.167,0.391-0.334,0.421-0.334s0.361-0.2,0.691-0.434
		c0.361-0.234,0.721-0.467,0.812-0.5c0.12-0.033,0.511-0.3,0.872-0.567c0.361-0.267,0.721-0.5,0.751-0.5
		c0.03,0,0.15-0.067,0.24-0.167c0.18-0.167,0.571-0.434,1.623-1.034c0.361-0.2,0.751-0.467,0.842-0.601
		c0.12-0.1,0.451-0.367,0.782-0.567c0.301-0.2,0.631-0.434,0.691-0.5c0.06-0.1,0.18-0.167,0.271-0.167c0.09,0,0.451-0.234,0.872-0.5
		c0.391-0.267,0.782-0.5,0.842-0.5c0.06,0,0.331-0.2,0.571-0.434c0.271-0.234,0.571-0.467,0.691-0.5
		c0.12-0.033,0.301-0.167,0.421-0.267s0.481-0.334,0.812-0.5c0.331-0.167,0.721-0.4,0.842-0.5c1.172-0.901,2.314-1.635,2.525-1.702
		c0.15-0.033,0.481-0.234,0.751-0.467c0.271-0.2,0.601-0.434,0.751-0.5c0.12-0.067,0.391-0.267,0.601-0.434
		c0.21-0.167,0.631-0.434,0.932-0.601c0.301-0.167,0.601-0.334,0.631-0.4c0.03-0.067,0.301-0.267,0.631-0.4
		c0.511-0.267,0.872-1.168,0.451-1.168c-0.06,0-0.21-0.234-0.361-0.5s-0.331-0.567-0.421-0.634s-0.271-0.4-0.391-0.701
		c-0.15-0.3-0.331-0.667-0.451-0.801c-0.12-0.133-0.271-0.467-0.331-0.767c-0.09-0.3-0.271-0.734-0.391-0.968
		c-0.18-0.3-0.301-0.701-0.391-1.401c-0.09-0.534-0.24-1.134-0.331-1.335c-0.601-1.068-0.571-7.44,0.03-8.808
		c0.15-0.334,0.271-0.701,0.271-0.834c0-0.334,0.271-1.234,0.481-1.568c0.21-0.367,0.421-1.001,0.451-1.268c0-0.1,0.09-0.3,0.21-0.4
		c0.12-0.1,0.331-0.434,0.451-0.767c0.21-0.5,0.571-1.068,1.112-1.802c0.09-0.133,0.361-0.5,0.601-0.834
		c0.571-0.801,2.345-2.569,2.585-2.569c0.06,0,0.24-0.133,0.391-0.3s0.451-0.4,0.661-0.534c0.21-0.133,0.571-0.4,0.812-0.601
		c0.24-0.2,0.511-0.367,0.571-0.367c0.09,0,0.601-0.234,1.172-0.5c0.571-0.267,1.232-0.567,1.503-0.667
		c1.232-0.467,4.268-0.801,5.561-0.601c1.112,0.167,1.022,0.834,1.082-6.807l0.06-6.673l0.271-0.534
		c0.812-1.535,0.812-8.608,0.03-10.31c-0.12-0.3-0.301-0.834-0.361-1.235c-0.06-0.4-0.21-0.801-0.301-0.901
		c-0.09-0.1-0.301-0.5-0.481-0.901c-0.15-0.4-0.361-0.801-0.451-0.867c-0.09-0.1-0.24-0.334-0.301-0.534
		c-0.361-0.934-3.066-4.037-4.058-4.604c-0.15-0.1-0.481-0.3-0.782-0.5c-0.271-0.2-0.601-0.4-0.721-0.434s-0.361-0.2-0.571-0.334
		c-0.391-0.3-1.864-0.867-3.036-1.168C93.726,399.615,89.488,399.448,88.135,399.615 M76.172,467.28v7.174l-0.331,0.033
		c-0.271,0.033-0.331,0.1-0.391,0.367c-0.09,0.334-0.12,0.367-0.631,0.4c-0.631,0.067-0.812,0.2-0.872,0.567
		c-0.03,0.167-0.12,0.267-0.331,0.267c-0.331,0.033-0.962,0.534-0.962,0.767c0,0.1-0.12,0.167-0.331,0.167
		c-0.361,0-0.511,0.133-0.571,0.5c-0.03,0.2-0.21,0.3-1.022,0.434c-0.301,0.067-0.421,0.133-0.511,0.4
		c-0.09,0.234-0.21,0.334-0.451,0.4c-0.21,0.033-0.391,0.167-0.511,0.4c-0.15,0.267-0.271,0.334-0.631,0.4
		c-0.331,0.067-0.541,0.167-0.751,0.434c-0.18,0.2-0.361,0.367-0.421,0.367c-0.21,0-0.331,0.467-0.391,1.468
		c-0.06,0.901-0.09,1.001-0.271,1.101c-0.301,0.133-0.361,0.334-0.421,1.435c-0.06,0.867-0.09,0.934-0.331,1.101
		c-0.301,0.167-0.331,0.267-0.451,1.068c-0.06,0.434-0.12,0.534-0.301,0.601c-0.15,0.033-0.301,0.2-0.391,0.5
		c-0.09,0.234-0.24,0.5-0.361,0.567c-0.12,0.067-0.301,0.3-0.391,0.534c-0.09,0.234-0.361,0.601-0.571,0.801
		c-0.21,0.2-0.511,0.534-0.661,0.701c-0.15,0.167-0.421,0.367-0.571,0.434c-0.15,0.067-0.331,0.267-0.391,0.434
		c-0.09,0.2-0.24,0.3-0.511,0.367c-0.24,0.033-0.571,0.234-0.812,0.467c-0.24,0.2-0.511,0.4-0.631,0.4
		c-0.12,0-0.391,0.133-0.631,0.267c-0.661,0.467-0.751,0.467-2.585,0.634c-2.465,0.2-4.99,0.033-5.531-0.4
		c-0.21-0.167-0.661-0.367-0.992-0.467c-0.451-0.133-0.721-0.267-0.902-0.5c-0.15-0.167-0.331-0.334-0.421-0.334
		s-0.391-0.234-0.721-0.5c-0.301-0.267-0.601-0.5-0.631-0.5c-0.06,0-0.24-0.167-0.391-0.4c-0.18-0.2-0.421-0.4-0.511-0.4
		c-0.15,0-0.21-0.067-0.21-0.234c0-0.133-0.15-0.4-0.331-0.601c-0.18-0.2-0.451-0.601-0.601-0.901s-0.331-0.567-0.421-0.601
		c-0.06-0.033-0.18-0.267-0.24-0.534c-0.06-0.267-0.21-0.601-0.361-0.767c-0.18-0.2-0.301-0.567-0.391-1.101
		c-0.09-0.567-0.24-0.901-0.391-1.101l-0.24-0.3v-2.803v-2.903l0.24-0.3c0.18-0.2,0.301-0.534,0.421-1.101
		c0.09-0.534,0.271-0.968,0.451-1.268c0.15-0.234,0.301-0.534,0.301-0.667c0-0.1,0.12-0.334,0.24-0.467
		c0.15-0.133,0.361-0.5,0.511-0.834s0.331-0.567,0.421-0.567s0.21-0.2,0.301-0.434c0.09-0.3,0.24-0.467,0.391-0.5
		c0.12-0.033,0.301-0.2,0.391-0.4c0.09-0.167,0.24-0.334,0.301-0.334c0.09,0,0.331-0.2,0.541-0.434s0.451-0.434,0.541-0.434
		c0.09,0,0.331-0.2,0.601-0.434c0.331-0.334,0.571-0.467,0.932-0.5c0.301-0.067,0.601-0.2,0.812-0.4
		c0.271-0.267,0.481-0.334,1.323-0.467c0.541-0.1,1.353-0.267,1.803-0.4c0.962-0.267,1.713-0.3,2.224-0.033
		c0.451,0.2,1.894,0.5,2.555,0.5s0.902,0.1,1.022,0.4c0.24,0.734,2.705,0.601,2.705-0.133c0-0.067,0.09-0.133,0.21-0.133
		c0.24,0,0.902-0.4,1.082-0.701c0.06-0.1,0.21-0.2,0.331-0.2c0.301,0,0.601-0.2,0.691-0.5c0.06-0.2,0.18-0.267,0.661-0.334
		c0.421-0.067,0.631-0.167,0.812-0.367c0.12-0.167,0.481-0.4,0.751-0.534c0.301-0.167,0.541-0.367,0.571-0.5
		c0.03-0.167,0.15-0.234,0.361-0.234c0.361,0,1.052-0.367,1.172-0.667c0.06-0.133,0.271-0.234,0.541-0.3s0.541-0.2,0.691-0.4
		c0.15-0.167,0.451-0.367,0.691-0.434c0.301-0.1,0.451-0.2,0.511-0.434c0.09-0.267,0.18-0.334,0.601-0.367
		c0.511-0.067,0.872-0.3,0.872-0.567c0-0.1,0.21-0.167,0.541-0.2c0.631-0.1,0.992-0.3,0.992-0.601c0-0.167,0.06-0.234,0.301-0.234
		c0.481,0,0.601-0.1,0.601-0.467c0-0.3,0.03-0.334,0.391-0.334h0.391v7.107"/>
	<path id="path3_1_" class="st4" d="M75.989,459.849c0,0.382-0.153,0.486-0.614,0.486c-0.246,0-0.307,0.069-0.307,0.243
		c0,0.312-0.368,0.555-1.013,0.625c-0.338,0.035-0.552,0.139-0.552,0.208c0,0.278-0.399,0.52-0.89,0.59
		c-0.43,0.069-0.522,0.104-0.614,0.382c-0.092,0.243-0.215,0.347-0.522,0.451c-0.246,0.069-0.552,0.278-0.706,0.451
		c-0.184,0.208-0.43,0.347-0.706,0.416c-0.276,0.035-0.491,0.173-0.552,0.312c-0.153,0.278-0.829,0.694-1.197,0.694
		c-0.215,0-0.307,0.069-0.368,0.243c-0.031,0.139-0.276,0.347-0.583,0.52c-0.276,0.139-0.645,0.416-0.767,0.555
		c-0.184,0.208-0.399,0.312-0.829,0.382c-0.491,0.069-0.614,0.139-0.675,0.347c-0.092,0.312-0.399,0.52-0.706,0.52
		c-0.123,0-0.276,0.104-0.338,0.208c-0.184,0.312-0.829,0.729-1.105,0.729c-0.123,0-0.215,0.069-0.215,0.139
		c0,0.763-2.517,0.902-2.762,0.139c-0.092-0.312-0.368-0.416-1.044-0.416s-2.148-0.278-2.609-0.52
		c-0.522-0.243-1.289-0.243-2.271,0.035c-0.46,0.139-1.258,0.312-1.842,0.416c-0.859,0.139-1.074,0.243-1.35,0.486
		c-0.215,0.208-0.491,0.347-0.829,0.416c-0.368,0.069-0.614,0.208-0.951,0.52c-0.246,0.243-0.522,0.451-0.614,0.451
		c-0.092,0-0.338,0.208-0.552,0.451c-0.215,0.243-0.46,0.451-0.552,0.451c-0.092,0-0.246,0.139-0.307,0.347
		c-0.092,0.208-0.276,0.382-0.399,0.416c-0.153,0.035-0.307,0.208-0.399,0.52c-0.092,0.243-0.215,0.451-0.307,0.451
		c-0.092,0-0.276,0.278-0.43,0.59c-0.153,0.347-0.368,0.729-0.522,0.867s-0.246,0.347-0.246,0.486c0,0.104-0.123,0.416-0.307,0.694
		c-0.184,0.312-0.368,0.763-0.46,1.319c-0.123,0.59-0.246,0.937-0.43,1.145l-0.246,0.312v3.019v3.019l0.246,0.312
		c0.184,0.208,0.307,0.555,0.399,1.145c0.092,0.555,0.246,0.937,0.399,1.145c0.153,0.173,0.307,0.52,0.368,0.798
		c0.061,0.278,0.184,0.52,0.246,0.555c0.061,0.035,0.276,0.312,0.43,0.625c0.153,0.312,0.43,0.729,0.614,0.937
		s0.338,0.486,0.338,0.625c0,0.173,0.061,0.243,0.215,0.243c0.123,0,0.368,0.173,0.522,0.416c0.184,0.208,0.368,0.416,0.399,0.416
		c0.061,0,0.338,0.243,0.645,0.52c0.307,0.278,0.645,0.52,0.737,0.52s0.276,0.139,0.43,0.347c0.184,0.243,0.491,0.382,0.921,0.52
		c0.368,0.104,0.829,0.312,1.013,0.486c0.552,0.451,3.131,0.625,5.647,0.416c1.872-0.139,1.934-0.173,2.64-0.659
		c0.215-0.139,0.522-0.278,0.645-0.278s0.43-0.173,0.645-0.416c0.246-0.243,0.583-0.451,0.829-0.486
		c0.307-0.069,0.43-0.139,0.522-0.382c0.061-0.173,0.246-0.382,0.399-0.451s0.399-0.278,0.583-0.451
		c0.153-0.173,0.46-0.486,0.675-0.729c0.215-0.208,0.46-0.59,0.583-0.833c0.092-0.243,0.276-0.486,0.399-0.555
		c0.123-0.069,0.276-0.312,0.368-0.59c0.092-0.278,0.246-0.486,0.399-0.52c0.184-0.069,0.246-0.173,0.307-0.625
		c0.092-0.833,0.153-0.937,0.46-1.11c0.276-0.173,0.276-0.208,0.338-1.145c0.061-1.145,0.123-1.353,0.43-1.492
		c0.215-0.104,0.246-0.208,0.276-1.145c0.061-1.041,0.184-1.527,0.399-1.527c0.061,0,0.246-0.173,0.43-0.382
		c0.246-0.278,0.43-0.416,0.767-0.451c0.368-0.069,0.491-0.139,0.645-0.416c0.123-0.243,0.276-0.347,0.522-0.416
		c0.246-0.069,0.368-0.173,0.46-0.416c0.092-0.278,0.184-0.347,0.522-0.416c0.829-0.173,1.013-0.243,1.044-0.451
		c0.061-0.382,0.215-0.52,0.583-0.52c0.215,0,0.338-0.069,0.338-0.173c0-0.243,0.645-0.729,0.982-0.798
		c0.215-0.035,0.307-0.104,0.338-0.278c0.061-0.382,0.246-0.52,0.89-0.59c0.522-0.069,0.583-0.104,0.645-0.416
		c0.061-0.312,0.153-0.382,0.399-0.382l0.338-0.035v-7.46v-7.46h-0.399C76.02,459.537,75.989,459.537,75.989,459.849"/>
</g>
</svg>
