<?xml version="1.0" encoding="utf-8"?>
<!-- Generator: Adobe Illustrator 23.0.3, SVG Export Plug-In . SVG Version: 6.00 Build 0)  -->
<svg version="1.1" id="Layer_1" xmlns="http://www.w3.org/2000/svg" xmlns:xlink="http://www.w3.org/1999/xlink" x="0px" y="0px"
	 viewBox="0 0 168 36.6" style="enable-background:new 0 0 168 36.6;" xml:space="preserve">
<style type="text/css">
	.st0{fill-rule:evenodd;clip-rule:evenodd;fill:#3C4484;}
	.st1{fill-rule:evenodd;clip-rule:evenodd;fill:#F48934;}
	.st2{fill-rule:evenodd;clip-rule:evenodd;fill:#6C73A5;}
</style>
<g id="svgg">
	<path id="path0" class="st0" d="M4.3,6.1c-0.1,0-0.1,0.1-0.2,0.1v12.4V31c0.1,0.1,0.2,0.2,0.4,0.4c0.2,0,0.4,0,0.6,0
		c0.8,0,1.6,0,2.3-0.1c0.9,0,1.8,0,2.7,0.1c0-0.3,0-0.8,0-1.4c0-1.6,0-1.9,0-3.5c0,0,0-0.6,0.2-3.2c0-0.5,0.1-1.1,0.4-1.3
		c0.3-0.3,0.7-0.2,1.5-0.1c0.8,0,0.5-0.1,2.2-0.1c1.6-0.1,2,0.1,3.4,0c0.5,0,1-0.1,1.3-0.2c0.5-0.1,0.9-0.2,1.4-0.2
		c0.3,0,0.7-0.1,1-0.1c0.1,0,0.3-0.1,0.6-0.2c1.5-0.4,1.9-0.5,2.4-0.7c0.2-0.1,0.3-0.1,0.7-0.3c0.7-0.3,0.6-0.2,0.9-0.3
		c0.8-0.3,0.7-0.6,1.5-0.9c0.1,0,0.3-0.1,0.6-0.3c0.1-0.1,0.2-0.2,0.3-0.4c0.5-0.6,0.8-0.7,0.9-1.1c0-0.2,0-0.2,0.1-0.3
		c0.1-0.3,0.2-0.4,0.4-0.7c0.1-0.1,0.1-0.3,0.2-0.5c0-0.2,0-0.5,0.1-0.9c0-0.6,0.1-0.7,0.1-1c0-1,0-1.2-0.3-1.7
		c-0.1-0.2-0.2-0.5-0.3-0.8c-0.1-0.5-0.1-0.5-0.3-0.7c-0.1-0.1-0.2-0.2-0.2-0.2c0-0.1-0.3-0.5-0.5-0.6c-0.1,0-0.1-0.1-0.2-0.2
		c-0.1-0.2-0.2-0.3-1.3-1c-1-0.6-1.1-0.7-1.4-0.8c-0.1,0-0.3-0.1-0.5-0.2s-0.5-0.2-0.7-0.3c-0.2-0.1-0.4-0.1-0.7-0.2
		c-0.8-0.2-1.4-0.4-1.6-0.4c-0.4-0.1-1-0.2-1.6-0.2c-0.4-0.1-1.1-0.2-1.9-0.3c-2.1-0.3-4.2-0.4-9.6-0.1C7.8,6,6.2,6,4.3,6.1z
		 M62,6.1c-0.1,0-0.1,0-0.2,0v12.5c-0.2,3.1-0.2,6.5,0,10c0.1,0.9,0.1,1.8,0.2,2.7c0.9,0.1,1.8,0.2,2.7,0.3c0.9-0.1,1.7-0.2,2.6-0.3
		c0.2,0,0.3,0,0.5,0c0-0.1,0.1-0.3,0.1-0.4c-0.1-1.4-0.1-2.8-0.2-4.2c0.1-1,0.1-1.9,0.1-2.4c0-0.9,0.1-1.4,0-1.5
		c-0.1-0.2-0.2-0.5,0-0.7c0.1-0.1,0.2-0.2,0.3-0.2c1.3,0,2.7-0.1,4-0.1c1.3,0,2.6-0.1,3.8-0.2c0.3,0,0.6,0,0.8-0.1
		c0.3,0,0.6-0.1,1.1-0.1c0.4,0,0.5,0.1,0.7,0c0.4,0,0.6-0.2,1-0.4c0.2-0.1,0.6-0.2,1.1-0.3c0.3-0.1,0.8-0.2,1.3-0.4
		c0.5-0.2,0.8-0.4,1.1-0.5c0.5-0.3,1.2-0.7,2.2-1.1c0.5-0.6,1-1.2,1.5-1.8c0-0.1,0.1-0.2,0.2-0.4c0.2-0.4,0.5-0.7,0.5-0.7
		c0.2-0.3,0.4-1.2-0.1-4.3c-0.4-0.5-0.5-0.8-0.5-1.1c0-0.1,0-0.3-0.1-0.4c-0.1-0.2-0.3-0.1-0.5-0.3C86.1,9.7,86,9.6,86,9.4
		c-0.1-0.2-0.2-0.3-0.3-0.4c-0.1-0.1-0.3-0.2-0.3-0.3s-0.1-0.1-0.2-0.2c-0.1,0-0.2-0.1-0.3-0.2c-0.1-0.1-0.2-0.2-0.3-0.2
		c-0.1,0-0.2-0.1-0.2-0.2c0-0.1-0.1-0.1-0.3-0.2c-0.3-0.1-0.5-0.2-0.8-0.3c-0.1,0-0.4-0.1-0.7-0.1c-0.7-0.2-1-0.4-1.7-0.6
		c-0.2,0-0.4-0.1-0.8-0.2c-0.4,0-0.8-0.1-1.2-0.1C78,6.3,77.2,6.1,76.4,6C74,5.8,72,5.8,70.6,5.9c-1.2,0-1.9,0.1-3.8,0.2
		C64.7,6.1,63.1,6.1,62,6.1z M15.5,9c1.9,0.1,2.6,0.1,2.8,0.2c0.2,0.1,0.5,0.2,1.1,0.2c0.2,0,0.4,0.1,0.5,0.1
		c0.1,0.1,0.4,0.1,0.5,0.2c0.2,0.1,0.5,0.2,0.7,0.3c0.9,0.5,1.2,0.7,1.3,0.8c0,0.1,0.2,0.2,0.3,0.3c0.2,0.1,0.2,0.2,0.3,0.5
		c0.1,0.2,0.1,0.4,0.3,0.4c0.2,0.2,0.3,0.4,0.3,1.6s0,1.4-0.3,1.6c-0.1,0.1-0.2,0.2-0.2,0.4c-0.1,0.3-0.2,0.6-0.4,0.6
		c-0.1,0-0.2,0.1-0.2,0.2c-0.1,0.1-0.2,0.2-0.3,0.3c-0.1,0-0.2,0.1-0.3,0.2c-0.1,0.1-0.2,0.2-0.3,0.2c-0.1,0-0.2,0.1-0.3,0.2
		c0,0.1-0.2,0.1-0.3,0.2c-0.1,0-0.4,0.1-0.5,0.2c-0.2,0.1-0.4,0.2-0.6,0.2s-0.5,0.1-0.6,0.2c-0.2,0.1-0.7,0.2-1.5,0.2
		c-0.2,0-0.6,0.1-0.7,0.1c-0.7,0.2-6.5,0.2-6.9,0.1c-0.4-0.2-0.3-0.1-0.3-4.7c0-4.3,0-4.7,0.2-4.7C10.1,8.9,12.7,8.9,15.5,9
		 M75.2,9.3c0.1,0,0.4,0.3,0.9,0.2c0.2,0,0.3-0.1,0.4-0.2c-0.1,0.2,0,0.4,0.1,0.4c0.2,0.1,0.4,0,0.5-0.2c0.4-0.1,0.6-0.1,0.8,0
		c0.1,0,0.2,0.1,0.4,0.2c0.1,0,0.2,0.1,0.2,0.1c0.3,0.1,0.6,0.4,1,0.7c0.4,0.3,1.9,1.6,1.9,3.4c0,0.4-0.1,0.8-0.2,1
		c-0.2,0.6-0.5,1.5-1.2,1.8c-0.4,0.2-0.6,0.1-1.1,0.4c-0.2,0.1-0.3,0.3-0.6,0.4c-0.2,0.1-0.3,0.1-0.6,0.2c-0.2,0.1-0.4,0.1-0.7,0.3
		c-0.4,0.1-0.7,0.1-1.1,0.2c-0.4,0.1-0.8,0.2-1.2,0.3c-0.5,0.2-6,0.2-6.4,0.1c-0.5-0.2-0.5,0-0.5-4.8s0-4.6,0.4-4.7
		c1.5,0,2.9,0.1,4.5,0.1C73.5,9.2,74.4,9.2,75.2,9.3z M43.5,11.9c-0.9,0.1-1.2,0.2-2.5,0.4c-0.9,0.1-1.6,0.2-2.2,0.3
		c-0.6,0.2-1.1,0.3-1.4,0.4c0,0-0.2,0-0.7,0.2c-0.1,0.1-0.2,0.1-0.3,0.2c-0.1,0.1-0.2,0.3-0.2,0.3c-0.1,0,0-0.2-0.1-0.2
		c-0.2-0.1-0.6,0.2-0.8,0.4c-0.6,0.4-0.5,0.2-1.3,0.7c-1.1,0.7-1.6,1.4-1.7,1.6c0,0.1-0.1,0.1-0.1,0.1c-0.2,0.3-0.5,0.7-0.7,1.3
		c-0.2,0.6-0.3,1.2-0.4,1.6c-0.2,0.6-0.3,1.2-0.5,1.8c-0.1,0.3-0.1,0.7-0.2,1c0.4,0.9,0.5,1.5,0.5,2c0,0.3,0,0.8,0.3,1.2
		c0.2,0.3,0.4,0.4,0.5,0.5c0,0.2,0.1,0.3,0.2,0.4s0.3,0.4,0.4,0.7c0,0.1,0.2,0.3,0.3,0.4s0.2,0.2,0.2,0.3c0,0.1,0.1,0.2,0.2,0.2
		c0.1,0,0.2,0.1,0.3,0.3c0.1,0.1,0.3,0.3,0.4,0.4c0.1,0.1,0.3,0.2,0.3,0.3c0,0.1,0.1,0.1,0.2,0.1c0.1,0,0.2,0.1,0.3,0.2
		s0.2,0.2,0.4,0.2c0.1,0,0.3,0.1,0.3,0.2s0.2,0.1,0.3,0.2c0.1,0,0.3,0.1,0.4,0.2c0.1,0.1,0.2,0.2,0.3,0.2c0,0,0.3,0.1,0.5,0.2
		s0.5,0.2,0.6,0.3c0.1,0,0.3,0.1,0.4,0.2c0.1,0.1,0.4,0.2,0.7,0.2c0.3,0.1,0.6,0.1,0.7,0.2c0.1,0.1,0.3,0.1,0.6,0.2
		c0.6,0.1,0.9,0.1,1,0.2c0.7,0.3,6.8,0.4,7.9,0.1c0.4-0.1,0.7-0.2,1.2-0.2s0.9-0.1,0.9-0.2c0,0,0.5-0.2,0.7-0.2
		c0.1,0,0.3-0.1,0.4-0.2c0.1-0.1,0.4-0.2,0.6-0.2c0.4-0.1,0.5-0.1,1.4-0.6c0.2-0.1,0.4-0.2,0.5-0.2s0.2-0.1,0.2-0.2
		c0.1-0.1,0.2-0.2,0.3-0.2s0.2-0.1,0.3-0.2s0.2-0.2,0.3-0.2s0.2-0.1,0.3-0.2c0-0.1,0.2-0.2,0.3-0.3c0.1-0.1,0.3-0.2,0.3-0.3
		c0.1-0.1,0.2-0.2,0.3-0.2s0.2-0.1,0.2-0.2c0.1-0.3,0.2-0.5,0.4-0.6c0.1-0.1,0.2-0.2,0.3-0.4c0.1-0.2,0.2-0.4,0.3-0.4
		c0.2-0.1,0.2-0.2,0.3-0.8c0.1-0.4,0.1-0.6,0.3-0.7c0.4-0.6,0.5-5.2,0.1-5.5c-0.2-0.1-0.3-0.4-0.3-0.8C58,18.1,58,18,57.8,17.8
		c-0.1-0.1-0.2-0.2-0.3-0.4c-0.1-0.2-0.1-0.3-0.3-0.4c-0.1-0.1-0.2-0.3-0.3-0.4c-0.1-0.2-0.2-0.3-0.3-0.4c-0.2-0.2-0.3-0.3-0.3-0.3
		c-0.1-0.2,0-0.4,0-0.6c-0.1-0.1-0.2-0.2-0.7-0.2c-0.1-0.1-0.3-0.2-0.5-0.4c-0.7-0.6-1.2-0.9-1.8-1.3c-0.2-0.1-0.5-0.2-0.8-0.3
		c-0.1,0-0.3,0-0.4-0.1c-0.5-0.1-0.8-0.4-1.1-0.5c-0.3-0.2-0.8-0.3-1.5-0.3c-0.4,0-1,0-1.7-0.1c-0.9-0.1-1.2-0.3-1.9-0.3
		C44.9,11.7,44.2,11.8,43.5,11.9z M47.5,15c0.3,0.1,0.5,0.1,0.8,0.2c0.1,0.1,0.3,0.1,0.5,0.2c0.2,0,0.4,0.1,0.4,0.2
		c0.1,0,0.2,0.1,0.3,0.2c0.1,0,0.3,0.1,0.3,0.2c0,0.1,0.1,0.1,0.2,0.2c0.1,0,0.2,0.1,0.3,0.2s0.2,0.2,0.3,0.2S51,17,51,17.1
		c0,0,0.1,0.1,0.2,0.2c0.2,0.1,0.4,0.3,0.4,0.6c0,0.1,0.1,0.3,0.2,0.3c0.2,0.1,0.3,0.3,0.4,1.1c0.1,0.2,0.1,0.5,0.2,0.8
		c0.2,1.1,0.1,2.1-0.1,2.8c0,0.2,0,0.4-0.1,0.6c0,0.2-0.1,0.4-0.1,0.6c-0.1,0.3-0.2,0.5-0.3,0.6c-0.1,0.1-0.2,0.2-0.3,0.3
		c-0.1,0.2-0.1,0.4,0,0.5c-0.1,0.1-0.2,0.1-0.3,0.2c-0.4,0.3-0.7,0.7-1,1c-0.1,0.1-0.3,0.3-0.6,0.5c-0.4,0.3-0.8,0.3-1.1,0.4
		c-0.4,0.1-1,0.3-1.8,0.6c-0.1,0.1-0.4,0.3-0.7,0.3c-0.5,0.1-0.8,0-1-0.1c-0.5,0-0.9,0-1.5,0c-0.8,0-1.5-0.1-2.1-0.2
		c-0.2-0.1-0.4-0.2-0.6-0.3c-0.4-0.2-0.7-0.2-1-0.3c-0.2-0.2-0.5-0.3-0.8-0.5c-0.6-0.5-1-0.9-1.4-1.4c-0.1-0.2-0.2-0.4-0.3-0.5
		c-0.2-0.3-0.3-0.6-0.4-1c-0.1-0.2-0.1-0.4-0.1-0.5c-0.1-0.8-0.2-1.5-0.2-2.3c-0.1-0.5-0.1-1.2,0.2-2c0.1-0.3,0.2-0.6,0.3-0.8
		c0-0.1,0.1-0.3,0.2-0.5c0.1-0.2,0.2-0.4,0.3-0.5c0.1-0.2,0.1-0.3,0.3-0.4c0.1-0.1,0.2-0.1,0.2-0.2c0,0,0,0,0,0
		c0-0.1,0.1-0.2,0.5-0.6c0.1-0.1,0.2-0.2,0.3-0.3c0.1-0.1,0.2-0.1,0.4-0.2c0.1-0.1,0.2-0.1,0.3-0.2c0.2-0.2,0.4-0.2,0.5-0.2
		c0.1,0,0.3,0,0.4-0.2c0,0,0.1-0.1,0.1-0.1c0.3-0.1,0.6-0.1,1-0.2c0.5-0.1,0.9-0.2,1.4-0.2C44.2,14.8,45.8,14.7,47.5,15z M92.6,20.3
		c-0.1,0.5-0.1,1-0.2,1.4c0,0.5-0.1,0.9-0.1,1.4c1.8,0.1,3.7,0.2,5.7,0.2c1.6,0,3.2,0,4.7-0.1c0.1-0.4,0.2-0.9,0.2-1.4
		c0-0.5,0-0.9-0.1-1.2C99.4,20.5,96,20.4,92.6,20.3z"/>
	<path id="path1" class="st1" d="M112,5.7c-0.1,0-0.2,0.1-0.3,0.3l-0.2,0.2v12.4V31l0.1,0.2c0.2,0.3,0.1,0.3,3.1,0.3
		c2.5,0,2.7,0,2.9-0.1c0.5-0.2,0.5,0.1,0.5-4.8v-4.4l0.2-0.2l0.2-0.2h2.7c3.5,0,4.9-0.1,5.8-0.3c0.1,0,0.6-0.1,1.1-0.2
		s1.2-0.2,1.5-0.3c0.3-0.1,0.9-0.2,1.2-0.3c0.8-0.2,1.8-0.5,2.9-1.1c0.7-0.3,2.3-1.4,2.5-1.7c0.1-0.2,0.2-0.3,0.3-0.3
		c0,0,0.2-0.2,0.3-0.3c0.1-0.2,0.3-0.3,0.4-0.4c0.1-0.1,0.2-0.2,0.2-0.3c0-0.1,0.1-0.4,0.3-0.6c0.3-0.7,0.3-0.7,0.5-1.7
		c0.1-0.7,0.1-1,0-1.5c0-0.3-0.1-0.8-0.1-1c0-0.3-0.1-0.6-0.2-0.8c-0.1-0.2-0.3-0.5-0.3-0.7c-0.1-0.2-0.2-0.5-0.3-0.5
		c-0.1-0.1-0.2-0.3-0.3-0.4c-0.1-0.1-0.2-0.3-0.3-0.4c-0.1-0.1-0.2-0.2-0.3-0.3s-1.4-1-1.8-1.2c-0.7-0.4-2.2-0.9-3.3-1.1
		c-0.4-0.1-0.8-0.2-0.9-0.2c-0.1-0.1-0.9-0.2-1.9-0.3c-0.5,0-1-0.1-1.1-0.1C126.7,5.7,112.3,5.6,112,5.7 M143.7,5.7
		c-0.2,0.1-0.3,0.1-0.3,0.2c-0.1,0.2-0.1,25,0,25.3s-0.6,0.3,11.3,0.3c12,0,11.1,0,11.4-0.3c0.2-0.3,0.2-3,0-3.1
		c-0.4-0.3,0-0.2-8-0.2h-7.4l-0.3-0.1c-0.4-0.2-0.4,0.2-0.3-4v-3.7l0.3-0.2l0.3-0.2h7.1h7.1l0.2-0.1l0.2-0.1V18c0-1.8,0-1.7-0.6-1.8
		c-0.2,0-3.4,0-7.1,0c-7.4,0-7.1,0-7.3-0.3c-0.2-0.2-0.2-6.3,0-6.5c0.3-0.3,0-0.2,8-0.2s7.6,0,8-0.2c0.2-0.1,0.2-0.1,0.2-1.5
		c0-1.6,0-1.6-0.4-1.8C165.4,5.6,144.2,5.6,143.7,5.7 M123.9,9.3c1.8,0.1,3.1,0.2,3.4,0.4c0,0,0.2,0.1,0.3,0.1
		c1.3,0.3,2.8,1.2,3.1,2c0.1,0.1,0.2,0.4,0.3,0.6c0.2,0.4,0.3,1.9,0.1,2.4c-0.5,1.2-1.2,1.9-2.3,2.4c-0.2,0.1-0.4,0.2-0.5,0.2
		c-0.3,0.2-1.9,0.5-2.7,0.6c-0.2,0-0.7,0.1-0.9,0.1c-0.6,0.1-3.4,0.2-5,0.1h-1.2l-0.2-0.1c-0.2-0.2-0.2-0.3-0.3-4.5
		c0-4.2,0-4.1,0.3-4.3c0.1,0,0.2-0.1,0.3-0.1C119,9.2,122.9,9.2,123.9,9.3"/>
	<path id="path3" class="st2" d="M4,5.6c-0.5,0-0.4-1.3-0.4,13v12.8l0.2,0.1L4,31.6h3c3.3,0,3.2,0,3.3-0.3c0-0.1,0.1-1.6,0.1-4.6
		c0-2.4,0-4.4,0.1-4.5C10.7,22,11,22,12.9,22c1.8,0,4.6-0.1,5.6-0.2c1.4-0.1,3.3-0.4,3.7-0.6c0.1,0,0.5-0.1,0.9-0.2s0.8-0.2,0.9-0.2
		c0.7-0.3,1-0.4,1.1-0.4c0,0,0.3-0.1,0.5-0.2c0.6-0.2,2.6-1.4,2.6-1.5c0,0,0.1-0.1,0.2-0.2s0.3-0.3,0.4-0.4c0.4-0.5,0.6-0.7,0.7-0.9
		c0-0.1,0.1-0.2,0.2-0.3c0.1-0.1,0.2-0.3,0.3-0.5c0.1-0.2,0.2-0.5,0.3-0.7c0.4-0.7,0.4-3.7,0-4.3c-0.1-0.2-0.2-0.5-0.3-0.7
		c-0.1-0.4-0.2-0.5-0.4-0.7c0,0-0.1-0.2-0.2-0.3s-0.2-0.3-0.3-0.3c-0.1,0-0.2-0.2-0.3-0.3c-0.2-0.3-0.3-0.3-1.3-1
		c-0.5-0.3-0.9-0.6-1.2-0.7c-0.3-0.1-0.5-0.2-0.5-0.2c-0.2-0.1-1.2-0.5-1.9-0.6C23.4,6.5,23,6.4,23,6.4c-0.2-0.1-1.7-0.3-3.6-0.5
		C17.7,5.6,5.3,5.5,4,5.6 M61.7,5.7c-0.3,0.2-0.3-0.1-0.3,12.9c0,13.1,0,12.8,0.3,12.9s5.9,0.1,6.1,0c0.3-0.1,0.3-0.4,0.3-5v-4.4
		l0.2-0.1l0.2-0.1h1.8c2.1,0,5.9-0.1,6.5-0.2c0.2,0,0.8-0.1,1.3-0.2c0.9-0.1,1.2-0.2,1.9-0.4c0.2-0.1,0.5-0.1,0.7-0.2
		c0.4-0.1,0.9-0.2,1.1-0.3c0.1,0,0.3-0.1,0.5-0.2c1.8-0.6,3.5-1.7,4.3-2.7c0.1-0.1,0.2-0.3,0.3-0.4c0.2-0.1,0.4-0.5,0.4-0.6
		c0,0,0.1-0.2,0.2-0.3c0.1-0.2,0.2-0.5,0.4-0.9c0.1-0.4,0.2-0.7,0.2-0.8c0.1-0.3,0.2-1.1,0.2-1.9c0-0.8-0.1-0.9-0.3-1.4
		c-0.1-0.1-0.2-0.4-0.2-0.7c-0.1-0.2-0.2-0.4-0.2-0.5c-0.1-0.1-0.2-0.3-0.3-0.5c-0.3,0.2-0.5,0-0.6-0.2c-0.1-0.1-0.3-0.3-0.3-0.4
		c-0.1-0.1-0.2-0.2-0.2-0.3c-0.1,0.1-0.2,0-0.2,0c-0.8-0.7-2.3-1.6-2.6-1.6c0,0-0.2,0-0.3-0.1c-0.8-0.3-1.3-0.5-1.9-0.6
		c-0.4-0.1-0.7-0.2-0.7-0.2c-0.1,0-1.8-0.3-2.2-0.4c-0.2,0-0.6-0.1-0.9-0.1C75.6,5.6,62.1,5.5,61.7,5.7 M19.2,6.1
		c0.3,0,0.6,0.1,0.7,0.1C20,6.3,21,6.4,21.3,6.4c0.4,0,1.1,0.1,1.3,0.2c0.1,0.1,0.5,0.1,0.8,0.2C23.7,6.9,24,7,24,7s0.2,0.1,0.5,0.2
		c0.2,0.1,0.6,0.2,0.7,0.3c0.2,0.1,0.4,0.2,0.5,0.2c0.2,0,0.4,0.1,1.4,0.8s1.2,0.8,1.3,1c0,0.1,0.1,0.2,0.2,0.2s0.5,0.4,0.5,0.6
		c0,0,0.1,0.2,0.2,0.2c0.2,0.1,0.2,0.2,0.3,0.7c0.1,0.3,0.1,0.6,0.3,0.8c0.3,0.5,0.3,0.7,0.3,1.7s0,1-0.4,1.8c0,0.1-0.1,0.3-0.1,0.6
		c-0.1,0.3-0.1,0.5-0.2,0.6s-0.2,0.2-0.2,0.3c0,0.1-0.1,0.2-0.1,0.2l-0.1,0.1c0,0.1-0.1,0.1-0.1,0.2c-0.1,0.1-0.5,0.5-0.5,0.6
		c0,0-0.1,0.1-0.2,0.1s-0.2,0.1-0.3,0.2c-0.1,0.1-0.2,0.2-0.3,0.2c-0.1,0-0.2,0.1-0.3,0.2c0,0.1-0.1,0.1-0.2,0.2
		c-0.1,0-0.2,0.1-0.3,0.2c-0.1,0.1-0.2,0.2-0.3,0.2c-0.1,0-0.3,0.1-0.3,0.2c-0.1,0.1-0.2,0.1-0.2,0.1c-0.2,0-0.6,0.2-0.7,0.2
		S25.2,20,25,20.1c-0.2,0.1-0.4,0.1-0.5,0.2s-0.4,0.1-0.7,0.2c-0.3,0.1-0.6,0.1-0.7,0.2c-0.1,0-0.4,0.1-0.7,0.2
		c-0.3,0.1-0.6,0.1-0.8,0.2c-0.2,0.1-0.7,0.1-1.3,0.2c-0.5,0-1.2,0.1-1.5,0.2c-0.9,0.2-1.4,0.2-4.8,0.2c-2.5,0-3.3,0-3.5,0.1
		c-0.4,0.1-0.4,0-0.4,4.8c0,3.3,0,4.5-0.1,4.6l-0.1,0.1H7.2c-2.5,0-2.7,0-2.9-0.1l-0.2-0.1V18.6V6.2l0.2-0.1C4.5,6,18.3,6,19.2,6.1
		 M77,6.1c0.1,0,0.3,0,0.4,0c0.1,0,0.1,0,0.2,0c0.1,0,0.5,0.1,0.9,0.1c1.1,0.1,1.6,0.2,1.8,0.3c0.2,0.1,1,0.3,1.3,0.3
		c0,0,0.2,0.1,0.3,0.1c0.1,0.1,0.4,0.2,0.5,0.2c0.2,0,0.4,0.1,0.6,0.2c0.2,0.1,0.4,0.2,0.5,0.2s0.3,0.1,0.3,0.1
		c0.1,0,0.2,0.1,0.4,0.2c0.2,0.1,0.3,0.2,0.3,0.2s0.1,0.1,0.2,0.2c0.1,0,0.3,0.2,0.3,0.2c0.1,0.1,0.2,0.2,0.3,0.2
		c0.1,0,0.2,0.1,0.2,0.2c0,0.3,0.2,0.2,0.3,0.3c0.3,0.4,0.3,0.7,0.5,0.8c0.1,0,0.1,0,0.2,0c0.1,0,0.2,0.1,0.2,0.5
		c0.1,0.3,0.2,0.5,0.2,0.6c0.1,0.1,0.2,0.1,0.2,0.2c0.3,0.3,0.3,4.3,0,4.6c-0.2,0.2-0.3,0.3-0.4,0.7c-0.1,0.4-0.1,0.4-0.3,0.6
		c-0.1,0.1-0.3,0.2-0.3,0.3c0,0.1-0.1,0.2-0.2,0.3c-0.1,0.1-0.3,0.2-0.3,0.3c-0.1,0.1-0.2,0.3-0.3,0.3c-0.1,0-0.2,0.1-0.3,0.2
		c-0.2,0.2-0.5,0.3-0.6,0.4c-0.1,0-0.2,0.1-0.2,0.2c-0.1,0-0.2,0.1-0.3,0.1c-0.1,0-0.2,0.1-0.3,0.2c-0.1,0.1-0.3,0.2-0.5,0.3
		c-0.2,0.1-0.4,0.1-0.4,0.2c0,0-0.2,0.1-0.4,0.1c-0.2,0-0.5,0.1-0.6,0.2c-0.2,0.1-0.4,0.2-0.6,0.2s-0.5,0.1-0.6,0.2
		c-0.2,0.1-0.6,0.2-0.9,0.2C79.3,21,79,21,78.9,21.1c-0.2,0.1-0.4,0.1-1.7,0.2c-0.4,0-0.9,0.1-1.1,0.2c-0.5,0.1-2.7,0.2-5.6,0.2
		c-2.1,0-2.2,0-2.4,0.1c-0.5,0.2-0.4,0.1-0.4,4.9v4.4l-0.2,0.1l-0.2,0.1h-2.6c-1.4,0-2.7,0-2.7,0c-0.1,0-0.1-2.6-0.1-12.5V6.1
		c0.1,0,0.1,0,0.2,0C67.1,6.1,72,6.1,77,6.1z M10.5,9c-0.6,0.1-0.6-0.2-0.6,4.8c0,4.7,0,4.5,0.3,4.7c0.3,0.2,6.2,0.1,6.9-0.1
		c0.2,0,0.5-0.1,0.7-0.1c0.8-0.1,1.3-0.1,1.5-0.2c0.1-0.1,0.4-0.1,0.6-0.2c0.2,0,0.5-0.1,0.6-0.2c0.2-0.1,0.4-0.2,0.5-0.2
		s0.3-0.1,0.3-0.2s0.2-0.1,0.3-0.2c0.1,0,0.3-0.1,0.3-0.2c0.1-0.1,0.2-0.2,0.3-0.2c0.1,0,0.2-0.2,0.3-0.3c0.1-0.1,0.2-0.2,0.2-0.2
		c0.2,0,0.3-0.3,0.4-0.6c0-0.2,0.1-0.3,0.2-0.4c0.3-0.2,0.3-0.4,0.3-1.6s0-1.4-0.3-1.6c-0.1-0.1-0.2-0.2-0.3-0.4
		c-0.1-0.2-0.1-0.3-0.3-0.5c-0.1-0.1-0.3-0.2-0.3-0.3c-0.1-0.1-0.4-0.3-1.3-0.8c-0.2-0.1-0.5-0.2-0.7-0.3S20,9.6,19.9,9.5
		c-0.1-0.1-0.3-0.1-0.5-0.1c-0.5,0-0.9-0.1-1.1-0.2C18.2,9,11.7,8.8,10.5,9 M68.1,9c-0.4,0.1-0.4,0-0.4,4.7c0,4.8,0,4.7,0.5,4.8
		c0.4,0.1,5.9,0.1,6.4-0.1c0.1,0,0.5-0.1,0.9-0.1c0.9-0.1,1.1-0.1,1.4-0.2c0.1-0.1,0.5-0.1,0.7-0.2c0.3-0.1,0.5-0.1,0.6-0.2
		s0.3-0.1,0.4-0.2c0.2-0.1,0.7-0.3,1.1-0.5c0.3-0.1,1-0.5,1.3-1.3c0.1-0.2,0.1-0.4,0.2-0.5c0-0.3,0.1-0.5,0.2-0.7
		c0.2-0.3,0.2-1.2,0-1.5c-0.1-0.2-0.2-0.5-0.3-1c0-0.2-0.1-0.3-0.3-0.5c-0.1-0.1-0.3-0.3-0.3-0.4c-0.1-0.3-1.6-1.2-2.1-1.3
		c-0.1,0-0.3-0.1-0.4-0.2c-0.2-0.1-0.4-0.2-0.9-0.2c-0.3,0-0.6-0.1-0.7-0.1 M17.1,9.4c1.6,0.1,3.3,0.5,3.5,0.7c0,0,0.2,0.1,0.3,0.1
		c0.4,0.1,1.5,0.8,1.6,1c0.1,0.1,0.2,0.3,0.3,0.4c0.2,0.3,0.6,1.7,0.6,2.2c-0.1,0.8-0.5,1.8-0.8,2c-0.1,0.1-0.2,0.2-0.2,0.2
		c0,0.2-1.2,0.9-1.7,1.1c-1.3,0.5-1.7,0.6-3,0.8c-1.9,0.3-6.5,0.4-7.1,0.2c-0.4-0.1-0.4,0.1-0.4-4.4c0-4.4,0-4.1,0.4-4.3
		C11,9.3,15.8,9.3,17.1,9.4 M74.3,9.4c1,0,2.2,0.2,2.6,0.3c0.2,0,0.4,0.1,0.6,0.1S78,9.9,78.2,10c0.2,0.1,0.5,0.2,0.6,0.2
		c0.2,0.1,0.7,0.4,1.3,0.8c0.2,0.1,0.3,0.3,0.4,0.5s0.2,0.4,0.3,0.4c0.4,0.4,0.4,3.3,0,3.4c0,0-0.1,0.2-0.3,0.4
		c-0.1,0.2-0.3,0.4-0.4,0.5s-0.3,0.2-0.5,0.4c-0.6,0.5-1.3,0.7-2.2,1c-0.2,0.1-0.6,0.1-0.8,0.2c-0.3,0.1-0.6,0.1-0.9,0.2
		c-0.3,0-0.7,0.1-1,0.1c-1.6,0.2-6.1,0.2-6.4,0C68.1,18,68,9.7,68.2,9.5l0.1-0.1h2.5C72.3,9.3,73.8,9.4,74.3,9.4 M42.5,11.6
		c-1.2,0.1-1.5,0.2-2.5,0.3c-0.6,0.1-1.2,0.2-1.2,0.2s-0.4,0.1-0.9,0.3c-0.4,0.1-1,0.3-1.2,0.4c-0.4,0.1-1,0.4-1.5,0.7
		c-1.2,0.7-1.5,0.9-1.6,1s-0.2,0.2-0.2,0.2s-0.2,0.1-0.3,0.2c-0.1,0.1-0.3,0.3-0.4,0.3c-0.1,0.1-0.2,0.2-0.3,0.3s-0.3,0.3-0.3,0.3
		c-0.1,0-0.2,0.2-0.2,0.4c-0.1,0.2-0.2,0.3-0.3,0.4c-0.1,0.1-0.2,0.3-0.3,0.4c-0.1,0.2-0.2,0.4-0.3,0.5c-0.1,0.1-0.2,0.4-0.3,0.7
		c-0.1,0.3-0.2,0.7-0.3,0.8c-0.2,0.3-0.2,0.9-0.3,2.3c-0.1,1.3,0.4,3.5,0.9,4.2c0.1,0.2,0.2,0.4,0.3,0.6c0.1,0.2,0.2,0.4,0.3,0.5
		c0.1,0.1,0.2,0.3,0.3,0.4s0.2,0.3,0.3,0.3c0.1,0,0.2,0.2,0.4,0.3c0.1,0.1,0.3,0.3,0.3,0.3c0.1,0,0.2,0.2,0.3,0.3
		c0.1,0.1,0.2,0.2,0.2,0.2s0.2,0.1,0.3,0.3c0.2,0.2,0.7,0.5,1.4,0.9c0.2,0.1,0.6,0.3,0.8,0.5c0.2,0.1,0.5,0.3,0.5,0.3
		s0.1,0.1,0.3,0.1c0.1,0.1,0.4,0.2,0.6,0.2c0.2,0.1,0.5,0.2,0.6,0.2c0.1,0.1,0.5,0.2,0.8,0.2c0.3,0.1,0.6,0.1,0.6,0.2
		c0.2,0.1,1.2,0.3,2.2,0.4c2.9,0.4,7.3,0.1,9.5-0.6c1.5-0.5,2.3-0.8,2.5-0.9c0.1,0,0.3-0.2,0.6-0.3c0.5-0.2,1.1-0.6,1.5-1
		c0.6-0.4,0.7-0.6,0.8-0.7c0-0.1,0.2-0.2,0.3-0.2c0.1-0.1,0.3-0.2,0.4-0.4c0.1-0.1,0.2-0.3,0.3-0.3s0.2-0.3,0.3-0.5s0.2-0.4,0.3-0.4
		s0.3-0.4,0.4-0.7c0-0.1,0.1-0.3,0.2-0.4c0.2-0.3,0.3-0.9,0.6-3.1c0.1-0.4,0-1.7-0.1-1.7c0,0-0.1-0.3-0.1-0.6
		c-0.1-0.8-0.3-1.4-0.4-1.6c-0.1-0.1-0.2-0.4-0.3-0.6c-0.2-0.5-0.2-0.5-0.4-0.7c-0.1,0-0.2-0.2-0.3-0.4c-0.1-0.2-0.2-0.3-0.3-0.4
		c-0.1,0-0.2-0.2-0.3-0.4c-0.1-0.2-0.3-0.4-0.4-0.4c-0.1-0.1-0.2-0.2-0.3-0.3s-0.2-0.2-0.2-0.2c-0.1,0-0.2-0.2-0.4-0.3
		c-0.3-0.3-0.5-0.4-1.5-1c-1.2-0.7-1.5-0.8-1.8-0.9c-0.1,0-0.6-0.2-1.1-0.4c-0.6-0.2-1-0.3-1.6-0.4c-0.4-0.1-1-0.2-1.3-0.2
		C47.1,11.6,45,11.5,42.5,11.6 M45.7,12c0.5,0,1,0.1,1.2,0.1c0.7,0,1.7,0.1,2.2,0.3c0.3,0.1,0.8,0.2,1.2,0.2c0.3,0,0.5,0.1,0.6,0.2
		c0.1,0.1,0.4,0.2,0.6,0.2c0.2,0,0.5,0.1,0.6,0.2c0.1,0.1,0.3,0.1,0.5,0.2c0.2,0.1,0.4,0.2,0.4,0.2c0,0.1,0.2,0.1,0.3,0.2
		c0.1,0,0.3,0.1,0.3,0.2c0,0,0.1,0.1,0.3,0.2c0.3,0.1,1.4,0.9,1.5,1c0,0.1,0.2,0.2,0.3,0.2s0.2,0.1,0.3,0.2c0,0.1,0.2,0.2,0.3,0.3
		c0.1,0.1,0.3,0.3,0.3,0.4c0.1,0.1,0.2,0.3,0.3,0.4s0.2,0.2,0.3,0.4c0,0.1,0.2,0.3,0.3,0.4c0.2,0.2,0.3,0.3,0.3,0.8
		c0.1,0.4,0.2,0.7,0.3,0.8c0.2,0.1,0.3,0.8,0.3,2.7c0,2,0,2.5-0.3,2.8c-0.1,0.2-0.2,0.4-0.3,0.7c-0.1,0.6-0.1,0.7-0.3,0.8
		c-0.1,0-0.2,0.2-0.3,0.4c0,0.2-0.1,0.4-0.2,0.4c-0.1,0.1-0.3,0.2-0.4,0.6c0,0.1-0.1,0.1-0.2,0.2c-0.1,0-0.2,0.1-0.3,0.2
		s-0.2,0.2-0.3,0.3c-0.1,0.1-0.3,0.2-0.3,0.3c0,0.1-0.2,0.2-0.3,0.2s-0.2,0.1-0.3,0.2s-0.2,0.2-0.3,0.2s-0.2,0.1-0.3,0.2
		s-0.2,0.2-0.2,0.2c-0.1,0-0.3,0.1-0.5,0.2c-0.9,0.5-1,0.6-1.4,0.6c-0.2,0-0.5,0.1-0.6,0.2s-0.3,0.1-0.4,0.2c-0.2,0-0.7,0.2-0.7,0.2
		c0,0.1-0.4,0.1-0.9,0.2c-0.5,0-0.8,0.1-1.2,0.2c-1.1,0.3-7.2,0.3-7.9-0.1c-0.1,0-0.5-0.1-1-0.2c-0.2,0-0.5-0.1-0.6-0.2
		s-0.4-0.2-0.7-0.2c-0.3-0.1-0.6-0.2-0.7-0.2c-0.1-0.1-0.3-0.1-0.4-0.2c-0.1,0-0.4-0.1-0.6-0.3c-0.2-0.1-0.4-0.2-0.5-0.2
		c0,0-0.2-0.1-0.3-0.2s-0.3-0.2-0.4-0.2c-0.1,0-0.2-0.1-0.3-0.2c0-0.1-0.2-0.1-0.3-0.2c-0.1,0-0.3-0.1-0.4-0.2
		c-0.1-0.1-0.2-0.2-0.3-0.2s-0.2-0.1-0.2-0.1s-0.1-0.2-0.3-0.3c-0.1-0.1-0.3-0.3-0.4-0.4c-0.1-0.1-0.2-0.2-0.3-0.3
		c-0.1,0-0.2-0.1-0.2-0.2s-0.1-0.2-0.2-0.3c-0.1-0.1-0.2-0.3-0.3-0.4c-0.1-0.3-0.3-0.6-0.4-0.7s-0.1-0.2-0.2-0.4
		c-0.1-0.3-0.2-0.5-0.4-0.7c0,0.2-0.1,0-0.1-0.7c-0.1-0.8-0.2-1.3-0.4-1.6c-0.1-0.2-0.2-1.3,0-1.5c0.1-0.1,0.3-1,0.4-1.8
		c0.1-0.5,0.1-0.8,0.2-0.9c0.1-0.2,0.3-0.5,0.4-0.9c0-0.1,0.1-0.3,0.2-0.3c0.2-0.1,0.4-0.4,0.4-0.6c0-0.1,0.1-0.2,0.2-0.3
		c0.1-0.1,0.2-0.2,0.3-0.3c0.1-0.1,0.2-0.2,0.3-0.3c0.1,0,0.2-0.1,0.3-0.2c0.1-0.1,0.3-0.2,0.4-0.3c0.2-0.1,0.3-0.2,0.3-0.3
		s0.1-0.1,0.2-0.1c0.1,0,0.3-0.1,0.4-0.2c0.7-0.4,0.8-0.5,1.1-0.6c0.2-0.1,0.3-0.2,0.4-0.2c0.1-0.1,0.3-0.1,0.5-0.2
		c0.2-0.1,0.4-0.1,0.4-0.2c0,0,0.2-0.1,0.4-0.2c0.2,0,0.5-0.1,0.6-0.2c0.3-0.1,0.5-0.2,1.1-0.3c0.3,0,0.6-0.1,0.7-0.1
		c0.3-0.1,1-0.2,2-0.3c1.1-0.1,1.9-0.1,2.1-0.2C44.2,11.9,44.8,11.9,45.7,12 M43.2,14.7c-0.3,0-0.6,0.1-1,0.2
		C41.9,15,41.7,15,41.6,15c-0.3,0-0.7,0.1-0.8,0.2c-0.1,0.1-0.3,0.2-0.5,0.2s-0.4,0.1-0.5,0.2c0,0-0.2,0.1-0.4,0.2
		c-0.2,0.1-0.3,0.2-0.3,0.2s-0.1,0.1-0.2,0.2c-0.3,0.2-0.6,0.4-0.6,0.5c0,0-0.1,0.1-0.2,0.2c-0.2,0.1-0.2,0.2-0.3,0.4
		c-0.1,0.3-0.2,0.5-0.3,0.5s-0.2,0.2-0.3,0.7c-0.2,0.4-0.2,0.6-0.3,0.7c-0.3,0.3-0.3,0.7-0.3,2.7v1.9l0.2,0.2
		c0.2,0.2,0.2,0.3,0.3,0.6c0.1,0.5,0.2,0.8,0.4,0.9c0.1,0.1,0.2,0.2,0.3,0.4c0.1,0.2,0.2,0.3,0.3,0.4s0.2,0.2,0.3,0.3
		c0.1,0.1,0.2,0.2,0.3,0.3c0.1,0,0.2,0.1,0.3,0.2c0,0.1,0.2,0.2,0.3,0.2s0.3,0.1,0.3,0.2c0.1,0.1,0.2,0.2,0.3,0.2s0.3,0.1,0.3,0.1
		s0.2,0.1,0.4,0.2s0.4,0.2,0.5,0.2s0.3,0.1,0.6,0.1c0.5,0.1,1.6,0.2,2.2,0.3c0.5,0.1,1.1,0.1,2-0.1c0.3,0,0.9-0.1,1.3-0.2
		c0.5-0.1,0.7-0.1,0.9-0.2c0.1-0.1,0.3-0.1,0.5-0.2c0.2,0,0.4-0.1,0.5-0.2s0.3-0.2,0.4-0.2c0.1-0.1,0.3-0.1,0.3-0.2
		c0,0,0.2-0.2,0.4-0.3c0.7-0.4,0.8-0.6,0.9-0.8c0-0.1,0.2-0.2,0.2-0.3c0.2-0.2,0.4-0.4,0.4-0.7c0-0.2,0.1-0.3,0.2-0.3
		c0.3-0.2,0.4-0.4,0.4-1.1c0-0.5,0.1-0.8,0.2-0.9c0.4-0.5,0.3-2.7,0-3.1c-0.1-0.1-0.1-0.4-0.2-0.8c-0.1-0.8-0.2-1-0.4-1.1
		c-0.1-0.1-0.2-0.2-0.2-0.3c-0.1-0.3-0.2-0.5-0.4-0.6c-0.1-0.1-0.2-0.1-0.2-0.2s-0.2-0.5-0.4-0.5c-0.1,0-0.2-0.1-0.3-0.2
		s-0.2-0.2-0.3-0.2s-0.2-0.1-0.2-0.2c0-0.1-0.2-0.2-0.3-0.2s-0.3-0.1-0.3-0.2c-0.1,0-0.2-0.1-0.4-0.2c-0.2,0-0.4-0.1-0.5-0.2
		c-0.1-0.1-0.4-0.2-0.8-0.2c-0.3-0.1-0.8-0.2-1-0.2C46.1,14.7,44.1,14.7,43.2,14.7 M45.7,15.2c1.1,0.1,2.2,0.3,2.5,0.4
		c0.1,0,0.3,0.1,0.6,0.2c0.5,0.2,1.1,0.5,1.4,0.9c0.1,0.1,0.3,0.3,0.4,0.3c0.1,0,0.2,0.2,0.3,0.4c0.1,0.2,0.3,0.4,0.3,0.4
		c0.1,0,0.2,0.2,0.2,0.4c0.1,0.2,0.2,0.5,0.3,0.7c0.3,0.6,0.3,0.7,0.4,1.8c0.1,1.7,0,3.3-0.4,3.8c-0.1,0.1-0.2,0.3-0.3,0.6
		c-0.1,0.2-0.2,0.5-0.3,0.5s-0.2,0.2-0.3,0.4c-0.1,0.2-0.3,0.4-0.5,0.5c-0.1,0.1-0.3,0.2-0.5,0.3c-0.6,0.4-0.9,0.6-1.7,0.9
		c-1.7,0.6-4.4,0.7-6.8,0.2c-0.1,0-0.3-0.1-0.5-0.1c-0.1-0.1-0.3-0.1-0.5-0.2c-0.5-0.2-1.8-1-2-1.4c0-0.1-0.2-0.2-0.3-0.3
		c-0.1-0.1-0.3-0.3-0.3-0.5c-0.1-0.2-0.2-0.4-0.3-0.5s-0.2-0.4-0.2-0.6c-0.1-0.4-0.2-0.9-0.4-1.5c-0.1-0.4-0.1-2.1,0-2.5
		c0.2-1.1,0.5-1.9,0.6-2.1c0.1-0.1,0.2-0.3,0.2-0.5c0.1-0.2,0.2-0.4,0.3-0.4c0.1-0.1,0.2-0.3,0.3-0.4s0.3-0.3,0.4-0.4
		c0.1-0.1,0.3-0.2,0.4-0.3c0.9-0.7,2.6-1.2,4.3-1.3C44.5,15.1,44.6,15.1,45.7,15.2 M92.6,20.3c-0.4,0.1-0.5,2.6-0.2,3
		c0.2,0.2,0.2,0.2,5.5,0.2h4.8l0.2-0.2l0.2-0.2V22c0-1.2,0-1.3-0.3-1.6C102.6,20.2,92.8,20.2,92.6,20.3 M102.7,20.6
		c0.1,0.1,0.1,2.3,0,2.4c0,0.1-9.1,0.1-9.8,0h-0.3v-1.2v-1.2h0.2C93.4,20.5,102.7,20.6,102.7,20.6"/>
</g>
<path class="st0" d="M69.7,22"/>
<path class="st2" d="M80,21"/>
<path class="st0" d="M92.7,21.8"/>
<path class="st0" d="M150,72.8"/>
</svg>
